<?xml version="1.0" encoding="iso-8859-1"?>
<!-- Generator: Adobe Illustrator 19.0.0, SVG Export Plug-In . SVG Version: 6.00 Build 0)  -->
<svg version="1.1" id="Layer_1" xmlns="http://www.w3.org/2000/svg" xmlns:xlink="http://www.w3.org/1999/xlink" x="0px" y="0px"
	 viewBox="0 0 512 512" style="enable-background:new 0 0 512 512;" xml:space="preserve">
<g>
	<path style="fill:#4482C3;" d="M25.542,494.933c-2.185,0-4.369-0.836-6.033-2.5c-3.337-3.337-3.337-8.73,0-12.066L190.176,309.7
		c3.337-3.337,8.73-3.337,12.066,0c3.337,3.337,3.337,8.73,0,12.066L31.575,492.433C29.911,494.097,27.727,494.933,25.542,494.933"
		/>
	<g>
		<path style="fill:#353E56;" d="M25.6,512c-4.71,0-8.533-3.823-8.533-8.533V8.533C17.067,3.823,20.89,0,25.6,0
			s8.533,3.823,8.533,8.533v494.933C34.133,508.177,30.31,512,25.6,512"/>
		<path style="fill:#353E56;" d="M503.467,494.933H8.533C3.823,494.933,0,491.11,0,486.4s3.823-8.533,8.533-8.533h494.933
			c4.71,0,8.533,3.823,8.533,8.533S508.177,494.933,503.467,494.933"/>
	</g>
	<path style="fill:#C03A2B;" d="M76.8,247.467H59.733c-4.71,0-8.533-3.823-8.533-8.533s3.823-8.533,8.533-8.533H76.8
		c4.71,0,8.533,3.823,8.533,8.533S81.51,247.467,76.8,247.467"/>
	<path style="fill:#24AE5F;" d="M76.8,213.333H59.733c-4.71,0-8.533-3.823-8.533-8.533s3.823-8.533,8.533-8.533H76.8
		c4.71,0,8.533,3.823,8.533,8.533S81.51,213.333,76.8,213.333"/>
	<path style="fill:#F0C419;" d="M76.8,179.2H59.733c-4.71,0-8.533-3.823-8.533-8.533s3.823-8.533,8.533-8.533H76.8
		c4.71,0,8.533,3.823,8.533,8.533S81.51,179.2,76.8,179.2"/>
	<path style="fill:#4482C3;" d="M76.8,145.067H59.733c-4.71,0-8.533-3.823-8.533-8.533c0-4.71,3.823-8.533,8.533-8.533H76.8
		c4.71,0,8.533,3.823,8.533,8.533C85.333,141.244,81.51,145.067,76.8,145.067"/>
	<path style="fill:#24AE5F;" d="M76.8,110.933H59.733c-4.71,0-8.533-3.823-8.533-8.533c0-4.71,3.823-8.533,8.533-8.533H76.8
		c4.71,0,8.533,3.823,8.533,8.533C85.333,107.11,81.51,110.933,76.8,110.933"/>
	<path style="fill:#F0C419;" d="M76.8,76.8H59.733c-4.71,0-8.533-3.823-8.533-8.533s3.823-8.533,8.533-8.533H76.8
		c4.71,0,8.533,3.823,8.533,8.533S81.51,76.8,76.8,76.8"/>
	<g>
		<path style="fill:#C03A2B;" d="M76.8,42.667H59.733c-4.71,0-8.533-3.823-8.533-8.533s3.823-8.533,8.533-8.533H76.8
			c4.71,0,8.533,3.823,8.533,8.533S81.51,42.667,76.8,42.667"/>
		<path style="fill:#C03A2B;" d="M418.075,238.933c0,70.69-57.31,128-128,128s-128-57.31-128-128s57.31-128,128-128
			S418.075,168.243,418.075,238.933"/>
	</g>
	<path style="fill:#4482C3;" d="M368.125,152.35c-2.185,0-4.369-0.836-6.033-2.5c-3.337-3.337-3.337-8.73,0-12.066L497.371,2.496
		c3.337-3.328,8.738-3.328,12.075,0c3.328,3.337,3.328,8.738,0,12.075L374.159,149.85C372.495,151.514,370.31,152.35,368.125,152.35
		"/>
	<path style="fill:#F0C419;" d="M290.075,110.933v128h128C418.075,168.243,360.765,110.933,290.075,110.933"/>
</g>
<g>
</g>
<g>
</g>
<g>
</g>
<g>
</g>
<g>
</g>
<g>
</g>
<g>
</g>
<g>
</g>
<g>
</g>
<g>
</g>
<g>
</g>
<g>
</g>
<g>
</g>
<g>
</g>
<g>
</g>
</svg>
