<svg width="280" height="333" viewBox="0 0 280 333" fill="none" xmlns="http://www.w3.org/2000/svg">
<path d="M233.294 160.362V155.832L237.824 153.567V162.626L233.294 160.362Z" fill="#C4C4C4" stroke="black"/>
<path d="M235.559 175.763V192.977L171.233 228.764M178.934 263.645L256.5 293.5L257.303 275.876M110.079 263.645L33 302.5L32.6159 280.406M97.8476 228.764L32.6159 199.319V182.558" stroke="#CCD6E5"/>
<path d="M277.641 250.961C277.641 273.227 262.245 293.477 237.155 308.187C212.078 322.891 177.401 332.001 139.07 332.001C100.74 332.001 66.0632 322.891 40.9857 308.187C15.8964 293.477 0.5 273.227 0.5 250.961C0.5 228.695 15.8964 208.446 40.9857 193.735C66.0632 179.032 100.74 169.921 139.07 169.921C177.401 169.921 212.078 179.032 237.155 193.735C262.245 208.446 277.641 228.695 277.641 250.961Z" stroke="#CCD6E5"/>
<ellipse cx="137.5" cy="246" rx="72.5" ry="17" fill="#E3EEFF" fill-opacity="0.5"/>
<path d="M212.003 156.737V115.515L265.457 145.866V185.276L212.003 156.737Z" fill="#E3EEFF"/>
<path d="M14.0429 260.474V222.422L60.2488 246.884V286.295L14.0429 260.474Z" fill="#E3EEFF"/>
<path d="M45.2999 252.32C44.9375 250.508 44.2429 247.941 43.9409 246.884L35.7869 249.602C35.9379 253.075 36.5138 256.761 38.9579 258.662C43.0348 261.833 44.3939 259.115 43.9409 257.303C43.5785 255.854 43.7899 255.189 43.9409 255.038L44.8278 254.816C45.3456 254.687 45.6705 254.174 45.5658 253.65L45.2999 252.32Z" fill="#FFDAC0"/>
<path d="M26.2739 258.662C23.7371 258.3 21.2909 262.135 20.3849 264.098L46.6588 278.594L43.9408 267.722C43.5784 266.273 40.4678 265.306 38.9579 265.004V261.38L30.3509 257.756C30.0489 258.209 28.8107 259.025 26.2739 258.662Z" fill="#F79A0F"/>
<path d="M39.864 240.542C35.8776 239.817 33.0688 239.636 31.2568 241.901C25.3679 245.525 33.0688 254.075 25.3677 255.038C22.4685 255.4 24.9149 265.457 25.3676 266.363C25.7976 267.438 36.7945 274.389 40.3169 274.064C44.2188 273.703 40.6259 265.956 39.864 265.004C38.4144 263.192 43.0349 261.38 39.864 254.585C37.5989 249.602 42.6726 251.595 44.847 248.696C47.565 245.072 44.847 241.448 39.864 240.542Z" fill="#C4C4C4"/>
<path d="M39.864 240.542C35.8776 239.817 33.0688 239.636 31.2568 241.901C25.3679 245.525 33.0688 254.075 25.3677 255.038C22.4685 255.4 24.9149 265.457 25.3676 266.363C25.7976 267.438 36.7945 274.389 40.3169 274.064C44.2188 273.703 40.6259 265.956 39.864 265.004C38.4144 263.192 43.0349 261.38 39.864 254.585C37.5989 249.602 42.6726 251.595 44.847 248.696C47.565 245.072 44.847 241.448 39.864 240.542Z" fill="url(#paint0_linear)"/>
<path d="M237.824 153.114L233.294 152.661L230.123 159.455L237.371 163.079L237.824 153.114Z" fill="#FFCBA7"/>
<path d="M224.687 156.737C223.6 156.737 222.12 158.549 220.61 160.814L246.884 175.31C247.609 174.586 245.978 168.666 245.072 165.797C239.334 161.871 225.774 156.737 224.687 156.737Z" fill="#ACFEE0"/>
<path d="M230.123 158.096C229.312 156.476 229.368 149.943 230.123 145.866H237.371C239.032 147.225 241.448 150.939 237.824 154.926C233.294 159.908 230.576 159.002 230.123 158.096Z" fill="#FFDAC0"/>
<path d="M228.311 145.413C228.311 149.037 234.653 149.339 237.824 149.037C237.824 152.208 235.838 154.926 238.277 154.926C239.636 154.926 242.807 148.584 242.354 146.772C241.901 144.96 240.542 144.054 240.542 144.054C240.089 142.997 238.549 140.701 236.012 139.977C232.841 139.071 228.311 140.883 228.311 145.413Z" fill="#142B48"/>
<ellipse cx="238.387" cy="152.944" rx="1.359" ry="2.26499" transform="rotate(15.7043 238.387 152.944)" fill="#FFDAC0"/>
<path d="M54.8128 162.626L1.35901 194.336V154.473L54.8128 122.31V162.626Z" fill="#E3EEFF"/>
<path d="M279.5 212.003L225.14 243.26V283.577L279.5 251.867V212.003Z" fill="#E3EEFF"/>
<path d="M38.0145 165.007C43.1429 156.115 43.7085 145.995 39.2779 142.403C34.8473 138.811 27.0982 143.108 21.9698 152.001C16.8414 160.893 16.2757 171.013 20.7063 174.605C25.1369 178.197 32.8861 173.9 38.0145 165.007ZM24.9067 154.381C28.1576 148.745 33.0698 146.021 35.8784 148.297C38.687 150.574 38.3284 156.99 35.0775 162.626C31.8266 168.263 26.9144 170.987 24.1058 168.71C21.2973 166.434 21.6558 160.018 24.9067 154.381Z" fill="url(#paint1_linear)"/>
<path d="M38.0145 165.007C43.1429 156.115 43.7085 145.995 39.2779 142.403C34.8473 138.811 27.0982 143.108 21.9698 152.001C16.8414 160.893 16.2757 171.013 20.7063 174.605C25.1369 178.197 32.8861 173.9 38.0145 165.007ZM24.9067 154.381C28.1576 148.745 33.0698 146.021 35.8784 148.297C38.687 150.574 38.3284 156.99 35.0775 162.626C31.8266 168.263 26.9144 170.987 24.1058 168.71C21.2973 166.434 21.6558 160.018 24.9067 154.381Z" fill="url(#paint2_linear)"/>
<path d="M38.0145 165.007C36.521 167.597 34.7383 169.896 32.8178 171.709C30.8972 173.523 28.8953 174.798 26.9819 175.425C25.0686 176.052 23.3003 176.014 21.827 175.313C20.3537 174.613 19.2188 173.27 18.5188 171.4C17.8187 169.529 17.574 167.186 17.8056 164.569C18.0371 161.952 18.7379 159.139 19.8487 156.367C20.9594 153.596 22.4473 150.948 24.186 148.648C25.9247 146.349 27.863 144.466 29.8365 143.159L29.8935 148.777C28.6425 149.605 27.4138 150.799 26.3116 152.256C25.2094 153.714 24.2663 155.393 23.5622 157.149C22.8581 158.906 22.4138 160.69 22.267 162.349C22.1203 164.008 22.2754 165.493 22.7191 166.679C23.1629 167.864 23.8823 168.715 24.8162 169.159C25.7502 169.604 26.8711 169.628 28.084 169.23C29.2968 168.832 30.5658 168.025 31.7833 166.875C33.0008 165.725 34.1308 164.268 35.0775 162.626L38.0145 165.007Z" fill="url(#paint3_linear)"/>
<path d="M264.592 237.619C268.164 236.348 271.462 230.748 273.674 225.772C274.134 224.739 275.927 225.048 275.947 226.178L276.329 247.644L229.706 272.705L229.322 253.378C229.285 251.541 231.66 250.533 233.217 251.51C234.04 252.026 234.862 252.406 235.575 252.494C237.661 252.753 239.792 250.737 241.28 249.261C245.519 245.057 250.246 234.386 253.833 233.901C256.417 233.551 258.234 239.883 264.592 237.619Z" fill="url(#paint4_linear)"/>
<g clip-path="url(#clip0)">
<path d="M96.4132 135.855C96.3533 135.872 96.2872 135.865 96.2291 135.832C95.2358 135.262 94.0803 135.113 92.9749 135.412C91.87 135.712 90.9472 136.424 90.3778 137.417C90.3113 137.533 90.1629 137.573 90.0469 137.506C89.931 137.44 89.8908 137.291 89.9573 137.176C90.5917 136.07 91.6183 135.277 92.8482 134.944C94.0785 134.611 95.3646 134.777 96.4703 135.412C96.5863 135.478 96.6265 135.626 96.5599 135.742C96.5268 135.8 96.4731 135.839 96.4132 135.855Z" fill="#CCD6E5"/>
<path d="M98.0162 133.061C97.9563 133.077 97.8902 133.07 97.8321 133.037C94.2415 130.977 89.6441 132.223 87.5841 135.813C87.5175 135.929 87.3692 135.969 87.2532 135.903C87.1372 135.836 87.097 135.688 87.1636 135.572C89.3566 131.749 94.2509 130.424 98.0738 132.617C98.1898 132.683 98.2299 132.832 98.1634 132.948C98.1298 133.006 98.0761 133.045 98.0162 133.061Z" fill="#CCD6E5"/>
<path d="M99.619 130.267C99.5591 130.284 99.493 130.277 99.4349 130.244C94.3048 127.301 87.7345 129.079 84.7901 134.21C84.7236 134.326 84.5752 134.367 84.4593 134.3C84.3433 134.233 84.3031 134.085 84.3696 133.969C87.4469 128.606 94.3135 126.747 99.6761 129.824C99.7921 129.89 99.8323 130.038 99.7657 130.154C99.7326 130.212 99.6789 130.251 99.619 130.267Z" fill="#CCD6E5"/>
</g>
<path d="M144.758 158.213L134.794 155.782L132.509 159.904C135.245 161.924 144.619 161.473 144.6 161.934C144.582 162.34 149.373 162.937 151.323 162.22C153.273 161.503 156.005 163.189 156.725 160.932C157.445 158.675 151.803 157.031 150.038 156.956C149.208 156.921 146.673 157.804 144.758 158.213Z" fill="#694634"/>
<path d="M115.015 134.796C113.891 133.036 106.237 130.713 105.116 133.212C105.06 140.192 116.7 160.218 119.15 160.671C120.667 160.951 136.383 164.572 140.834 161.898C140.288 157.071 141.664 158.725 141.887 156.629L121.448 154.027C118.659 147.273 116.832 137.639 115.015 134.796Z" fill="#C44500"/>
<path d="M146.72 240.595C144.528 239.576 145.724 229.342 145.724 229.342L140.982 228.815L142.294 242.811C142.576 242.832 143.382 243.064 144.346 243.819C145.551 244.762 152.257 246.126 152.777 244.889C153.194 243.899 148.913 241.614 146.72 240.595Z" fill="#694634"/>
<path d="M145.647 243.493C148.278 244.716 151.258 244.347 152.419 244.01C156.143 244.295 159.977 246.843 158.22 247.56L148.742 247.56C148.753 247.419 148.384 246.677 147.569 246.194C147.205 245.977 145.063 245.577 144.607 245.968C144.243 246.28 144.108 246.923 144.087 247.205L141.971 247.043C141.971 247.043 141.632 245.471 141.742 244.467C141.834 243.627 142.327 242.384 142.327 242.384C142.75 242.416 143.017 242.27 145.647 243.493Z" fill="#0B1C37"/>
<path d="M163.568 224.525C161.151 224.489 159.275 215.116 159.275 215.116L152.426 216.169L160.431 228.354C160.698 228.259 161.527 228.142 162.715 228.437C164.2 228.807 170.88 227.316 170.85 225.974C170.826 224.901 165.985 224.561 163.568 224.525Z" fill="#694634"/>
<path d="M163.771 227.609C166.672 227.652 169.241 226.1 170.164 225.319C173.68 224.059 178.22 224.821 176.908 226.193L168.256 230.06C168.208 229.927 167.568 229.4 166.627 229.29C166.206 229.241 164.087 229.75 163.83 230.292C163.625 230.727 163.765 231.368 163.86 231.634L161.862 232.35C161.862 232.35 160.912 231.053 160.603 230.091C160.344 229.287 160.286 227.95 160.286 227.95C160.686 227.807 160.87 227.566 163.771 227.609Z" fill="#0B1C37"/>
<path d="M132.404 199.382H119.231V187.79L143.996 188.844L146.103 235.665H141.361L132.404 199.382Z" fill="#C4C4C4"/>
<path d="M132.404 199.382H119.231V187.79L143.996 188.844L146.103 235.665H141.361L132.404 199.382Z" fill="url(#paint5_linear)"/>
<path d="M92.8854 188.771C92.8854 184.134 93.7636 180.691 96.0468 179.286C99.7844 176.125 140.834 178.232 144.522 180.34C146.748 181.612 157.344 206.334 160.329 217.75L155.06 221.439L138.726 190.878C133.106 194.215 122.92 199.382 118.705 199.382C92.8862 203.597 92.8854 194.567 92.8854 188.771Z" fill="#C4C4C4"/>
<path d="M92.8854 188.771C92.8854 184.134 93.7636 180.691 96.0468 179.286C99.7844 176.125 140.834 178.232 144.522 180.34C146.748 181.612 157.344 206.334 160.329 217.75L155.06 221.439L138.726 190.878C133.106 194.215 122.92 199.382 118.705 199.382C92.8862 203.597 92.8854 194.567 92.8854 188.771Z" fill="url(#paint6_linear)"/>
<path d="M122.823 125.357C122.619 123.15 124.352 119.578 125.244 118.068L115.002 112.143L105.355 117.051C104.218 120.906 103.69 129.342 110.67 132.239C119.396 135.86 123.079 128.116 122.823 125.357Z" fill="#0B0200"/>
<path d="M89.7462 179.705C91.0287 169.017 89.2118 155.301 88.1431 149.78C96.5149 149.78 113.686 150.314 115.396 152.451C117.106 154.589 116.109 171.511 115.396 179.705H89.7462Z" fill="#4B8DFC"/>
<path d="M91.8349 176.125C92.3692 183.072 88.0943 187.347 84.3536 196.965C82.5161 201.69 87.0255 207.118 90.2318 208.187" stroke="#395481" stroke-width="2"/>
<path d="M89.1968 202.255C89.1968 200.046 90.9876 198.255 93.1968 198.255H139.703C141.912 198.255 143.703 200.046 143.703 202.255V208.942H89.1968V202.255Z" fill="#4B8DFC"/>
<path fill-rule="evenodd" clip-rule="evenodd" d="M87.575 149.469C88.6437 154.991 90.4605 168.707 89.1781 179.394H93.4532C93.4612 179.362 95.0563 172.96 95.0563 164.432C95.0563 156.365 93.1538 150.202 92.9385 149.53C91.0475 149.489 89.2897 149.471 87.7958 149.469H87.575H87.575Z" fill="#4B7ED3"/>
<path d="M95.3905 119.107C98.9486 115.856 103.12 116.604 104.762 117.384C104.481 116.564 105.148 115.302 110.063 116.816C116.206 118.707 97.2716 149.591 93.4122 151.36C89.5527 153.129 83.4098 144.303 84.143 136.414C84.7295 130.102 88.6909 128.965 90.5982 129.185C90.7131 127.18 91.8325 122.358 95.3905 119.107Z" fill="#0B0200"/>
<path d="M112.042 138.799C111.628 134.061 111.723 128.844 113.302 126.56C112.365 123.581 110.4 118.228 110.034 120.649C109.667 123.07 106.013 128.843 104.544 130.811L106.409 135.999C109.421 138.104 112.306 141.817 112.042 138.799Z" fill="#694634"/>
<path d="M110.487 118.379C110.506 117.372 112.201 113.615 113.046 111.862L123.21 118.072C121.174 120.191 121.484 123.406 121.057 124.766C119.362 130.163 116.751 131.657 114.947 131.122C111.069 129.97 109.745 124.073 109.696 121.998C109.674 121.088 109.736 119.959 111.068 119.049C111.453 117.743 110.009 117.685 110.487 118.379Z" fill="#7C533E"/>
<path d="M113.429 114.891C118.227 120.847 122.163 119.554 123.531 118.163C124.539 118.642 127.364 118.911 125.747 114.617C123.404 108.399 117 107.262 112.547 107.83C107.47 108.479 102.088 114.522 101.843 117.638C102.875 118.81 108.256 121.313 111.251 119.47C114.996 117.167 112.565 114.48 113.429 114.891Z" fill="#0B0200"/>
<rect x="114.488" y="211.954" width="3.20625" height="7.48124" fill="#395481"/>
<path d="M139.574 250.575C137.437 246.3 124.79 241.313 118.733 239.353L117.13 240.957L116.596 243.094C119.268 242.56 129.421 246.835 134.765 250.575C136.546 250.753 140.002 251.858 139.574 250.575Z" fill="#D7DFE3"/>
<path d="M137.045 250.967L137.437 250.575C134.872 246.3 123.187 242.382 117.665 240.957L116.81 242.239L116.596 243.094C119.268 242.56 129.421 246.835 134.765 250.575C135.244 250.623 135.845 250.738 136.459 250.856C136.654 250.893 136.851 250.931 137.045 250.967Z" fill="#C3CCD0"/>
<circle cx="135.833" cy="251.644" r="2.1375" fill="#395481"/>
<circle cx="140.108" cy="251.644" r="2.1375" fill="#768DB5"/>
<path d="M93.9764 250.575C96.1139 246.3 108.761 241.313 114.817 239.353L116.42 240.957L116.954 243.094C114.283 242.56 104.129 246.835 98.7857 250.575C97.0045 250.753 93.5489 251.858 93.9764 250.575Z" fill="#D7DFE3"/>
<path d="M96.5053 250.967L96.1138 250.575C98.6788 246.3 110.364 242.382 115.886 240.957L116.741 242.239L116.954 243.094C114.283 242.56 104.129 246.835 98.7857 250.575C98.306 250.623 97.7049 250.738 97.091 250.856C96.8959 250.893 96.6995 250.931 96.5053 250.967Z" fill="#C3CCD0"/>
<circle r="2.1375" transform="matrix(-1 0 0 1 97.7169 251.644)" fill="#395481"/>
<circle r="2.1375" transform="matrix(-1 0 0 1 93.4419 251.644)" fill="#768DB5"/>
<path d="M113.435 219.331V239.291L116.596 243.042L118.704 239.291V219.331H113.435Z" fill="#B4C5CD"/>
<rect x="89.1631" y="205.579" width="54.5062" height="3.20625" fill="#4B7ED3"/>
<path d="M164.137 169.256H154.518L160.931 257.962H164.137V169.256Z" fill="#A9C5EF"/>
<path d="M130.296 162.76C130.296 162.208 130.743 161.76 131.296 161.76H144.258C144.81 161.76 145.258 162.208 145.258 162.76V162.898C145.258 163.45 144.81 163.898 144.258 163.898H130.296V162.76Z" fill="#B4C5CD"/>
<path d="M149.364 134.763C149.463 134.302 149.87 133.972 150.342 133.972H191.644C192.259 133.972 192.729 134.523 192.631 135.131L188.008 163.897H143.121L149.364 134.763Z" fill="#D7DFE3"/>
<ellipse cx="169.305" cy="148.935" rx="3.74062" ry="3.20625" fill="#B4C5CD"/>
<path d="M111.376 208.793C111.343 208.967 111.327 209.146 111.327 209.327C111.327 211.393 113.48 213.068 116.136 213.068C118.792 213.068 120.946 211.393 120.946 209.327C120.946 209.146 120.929 208.967 120.897 208.793H111.376Z" fill="#395481"/>
<path fill-rule="evenodd" clip-rule="evenodd" d="M156.025 191.156L156.698 200.466L160.931 170.31L160.93 170.31H154.658L156.025 191.156Z" fill="#81ABEB"/>
<path d="M192.069 169.256H182.45L188.863 257.962H192.069V169.256Z" fill="#A9C5EF"/>
<path d="M182.553 172.912L184.176 195.357L188.778 170.31H182.45L182.553 172.912Z" fill="#81ABEB"/>
<path d="M145.258 161.76H187.274L186.939 162.829H144.724L145.258 161.76Z" fill="#B4C5CD"/>
<path d="M116.429 151.373C116.781 147.116 114.497 140.387 112.375 137.64L108.531 138.854L108.531 177.705L111.327 178.232L118.019 177.705C118.153 174.571 117.966 176.032 118.019 173.529C118.08 170.688 115.988 161.041 116.546 158.804C117.104 156.567 116.078 155.629 116.429 151.373Z" fill="#ACFEE1"/>
<path d="M110.022 135.485C109.704 131.691 107.016 129.837 105.711 129.385L99.4695 132.946C98.1323 137.035 97.0624 145.387 97.9345 147.36C99.0246 149.827 101.998 155.784 101.206 163.221C100.414 170.658 92.1419 184.815 94.7178 181.799C96.7785 179.386 108.358 180.749 113.642 181.939C111.264 178.865 110.418 140.228 110.022 135.485Z" fill="#E65100"/>
<path d="M125.026 178.232C121.865 178.232 118.521 177.74 118.177 178.232C118.177 178.232 112.878 151.608 111.425 138.653C112.584 137.716 111.425 133.064 112.039 132.889C112.653 132.715 113.476 136.71 113.476 136.71L125.026 178.232Z" fill="#F7610F"/>
<path d="M109.533 162.952L109.533 141.442L103.222 130.519L105.341 129.346L110.901 138.597C111.258 140.225 112.078 164.006 112.078 164.006C111.861 163.821 112.093 163.233 110.8 162.952C110.266 163.085 109.989 163.173 109.855 163.223C109.643 163.304 109.794 163.291 109.855 163.223C109.908 163.165 109.895 163.067 109.533 162.952Z" fill="#F7610F"/>
<path d="M106.218 169.256H115.837L109.425 257.962H106.218V169.256Z" fill="#A9C5EF"/>
<path d="M105.198 171.859L106.82 194.303L111.422 169.256H105.094L105.198 171.859Z" fill="#81ABEB"/>
<rect x="93" y="163" width="104" height="7" fill="#B8D4FF"/>
<rect x="154" y="163" width="43" height="7" fill="#A9C5EF"/>
<path d="M125.646 160.802L115.576 158.858L113.494 163.086C116.325 164.971 125.666 164.065 125.669 164.527C125.672 164.933 130.485 165.296 132.398 164.485C134.311 163.674 137.122 165.226 137.732 162.936C138.341 160.646 132.626 159.279 130.859 159.29C130.028 159.295 127.54 160.3 125.646 160.802Z" fill="#694634"/>
<path d="M103.622 137.292C103.175 135.252 100.401 132.71 99.2971 133.122C94.5733 138.261 92.8494 161.232 94.0208 162.764C94.9579 163.989 113.435 164.533 118.177 164.533C118.177 161.53 117.892 161.264 118.177 159.264L108.692 157.683L101.843 156.629C104.306 149.75 104.335 140.547 103.622 137.292Z" fill="#C44500"/>
<ellipse cx="110.273" cy="120.8" rx="1.05381" ry="2.63453" transform="rotate(12.2001 110.273 120.8)" fill="#7C533E"/>
<path d="M90.5997 72.4797V0L189.806 55.2658V131.37L144.506 103.737L134.088 109.626L129.558 96.9417L90.5997 72.4797Z" fill="#E3EEFF"/>
<path d="M121 80.3938V69.9749L153.163 88.0948V99.4198L121 80.3938Z" fill="#CCD6E5"/>
<path d="M123.265 36L182.5 71.5M123.265 43.248L182.5 78.5M123.265 50.9489L182.5 86.5M123.265 58.1969L181.5 93.5308M121 69.9749V80.3938L153.163 99.4198V88.0948L121 69.9749Z" stroke="#CCD6E5"/>
<mask id="mask0" mask-type="alpha" maskUnits="userSpaceOnUse" x="94" y="18" width="20" height="16">
<ellipse cx="104.06" cy="26.0099" rx="9.87593" ry="7.30342" transform="rotate(10.6986 104.06 26.0099)" fill="#B8D4FF"/>
</mask>
<g mask="url(#mask0)">
<ellipse cx="104.06" cy="26.0099" rx="9.87593" ry="7.30342" transform="rotate(10.6986 104.06 26.0099)" fill="#B8D4FF"/>
<path d="M105.463 21.0945C104.647 20.9405 103.852 20.9375 103.118 21.0547C102.937 20.9957 102.749 20.9447 102.554 20.9078C100.722 20.5618 99.0298 21.3793 98.7739 22.7338L97.9796 26.9382L97.9881 26.9398C97.6467 29.2221 99.8086 31.5134 102.893 32.0962C105.978 32.679 108.827 31.3343 109.342 29.0848L109.35 29.0865L109.946 25.9331C110.348 23.8047 108.341 21.6383 105.463 21.0945Z" fill="#947C41"/>
<path d="M107.465 31.271L98.9374 29.6598C97.8908 29.4621 96.9237 29.9293 96.7775 30.7033L96.4466 32.4551L108.765 34.7823L109.096 33.0305C109.242 32.2565 108.512 31.4687 107.465 31.271Z" fill="#9268CA"/>
<path d="M102.111 28.4447L101.714 30.5469C101.604 31.1275 102.152 31.7182 102.937 31.8665C103.722 32.0149 104.447 31.6645 104.557 31.084L104.954 28.9818L102.111 28.4447Z" fill="#F3D2A2"/>
<path d="M100.394 21.9512L99.5995 26.1556C99.2705 27.8973 100.913 29.6696 103.268 30.1145C105.623 30.5595 107.798 29.5085 108.128 27.7668L108.922 23.5624L100.394 21.9512Z" fill="#F3D2A2"/>
<path d="M108.988 23.2121L100.46 21.6009L100.394 21.9513L99.92 21.8618L99.5229 23.964C102.366 24.501 102.763 22.3988 102.763 22.3988C102.763 22.3988 103.247 25.0304 108.932 26.1045L109.396 23.6519L108.988 23.2121Z" fill="#947C41"/>
<path d="M98.6066 31.4112L99.0804 31.5007L98.8156 32.9021L98.3418 32.8126L98.6066 31.4112ZM106.661 32.9328L107.135 33.0223L106.87 34.4238L106.396 34.3343L106.661 32.9328Z" fill="#7450A8"/>
</g>
<mask id="mask1" mask-type="alpha" maskUnits="userSpaceOnUse" x="93" y="38" width="21" height="16">
<ellipse cx="103.23" cy="46.1245" rx="10.0005" ry="7.23189" transform="rotate(15.8717 103.23 46.1245)" fill="#B8D4FF"/>
</mask>
<g mask="url(#mask1)">
<ellipse cx="103.23" cy="46.1245" rx="10.0005" ry="7.23189" transform="rotate(15.8717 103.23 46.1245)" fill="#B8D4FF"/>
<path d="M99.7551 42.2347L98.6842 46.0015C98.2029 47.6942 99.71 49.6055 102.051 50.271C104.391 50.9365 106.679 50.104 107.16 48.4113L108.201 44.7508L99.7551 42.2347Z" fill="#F7DECE"/>
<path d="M99.8719 45.1302C99.7189 45.6682 99.2182 45.9973 98.753 45.865C98.2877 45.7327 98.0351 45.1894 98.188 44.6514C98.341 44.1134 98.8422 43.7845 99.3069 43.9166C99.7717 44.0487 100.025 44.5922 99.8719 45.1302ZM108.292 47.5242C108.139 48.0622 107.638 48.3913 107.173 48.259C106.708 48.1268 106.455 47.5835 106.608 47.0455C106.761 46.5074 107.262 46.1784 107.727 46.3106C108.192 46.4429 108.445 46.9862 108.292 47.5242Z" fill="#F7DECE"/>
<path d="M104.488 41.6979C101.183 40.7582 99.2606 41.9354 98.8826 43.2648C98.5047 44.5938 99.0323 45.1424 99.2393 44.8027C99.9844 43.5781 101.202 43.4834 101.202 43.4834C103.028 45.4393 102.963 44.2715 102.963 44.2715C104.713 46.4929 104.065 44.5848 104.065 44.5848C104.648 45.3255 106.851 45.9519 106.851 45.9519C106.851 45.9519 107.103 46.4643 107.318 47.1001C107.534 47.7364 108.053 47.309 108.431 45.98C108.809 44.6503 107.426 42.5332 104.488 41.6979Z" fill="#292F33"/>
<path d="M106.192 51.8168L97.7159 49.407C96.6757 49.1113 95.659 49.4813 95.4451 50.2335L94.9611 51.9361L107.204 55.417L107.688 53.7144C107.902 52.9622 107.232 52.1126 106.192 51.8168Z" fill="#4289C1"/>
<path d="M105.237 53.385L105.708 53.5188L105.32 54.8809L104.85 54.747L105.237 53.385ZM97.232 51.109L97.7028 51.2429L97.3156 52.6049L96.8447 52.4711L97.232 51.109Z" fill="#2A6797"/>
<path d="M100.832 49.1884L100.444 50.5504C100.284 51.1147 100.786 51.7518 101.567 51.9736C102.347 52.1955 103.109 51.9179 103.27 51.3537L103.657 49.9917L100.832 49.1884Z" fill="#F7DECE"/>
<path d="M100.832 49.1884L100.444 50.5504C100.284 51.1147 100.786 51.7518 101.567 51.9736C102.347 52.1955 103.109 51.9179 103.27 51.3537L103.657 49.9917L100.832 49.1884Z" fill="#F7DECE"/>
</g>
<mask id="mask2" mask-type="alpha" maskUnits="userSpaceOnUse" x="92" y="58" width="20" height="16">
<ellipse cx="102.164" cy="66.3625" rx="9.5" ry="7.40329" transform="rotate(13.8375 102.164 66.3625)" fill="#B8D4FF"/>
</mask>
<g mask="url(#mask2)">
<ellipse cx="102.164" cy="66.3625" rx="9.5" ry="7.40329" transform="rotate(13.8375 102.164 66.3625)" fill="#B8D4FF"/>
<path d="M98.6766 63.0227L97.7178 66.9152C97.287 68.6645 98.757 70.5303 101.002 71.0832C103.246 71.6361 105.415 70.6664 105.846 68.9172L106.777 65.1345L98.6766 63.0227Z" fill="#7C533E"/>
<path d="M98.8365 65.9647C98.6996 66.5207 98.2273 66.8825 97.7812 66.7726C97.3351 66.6627 97.0849 66.1229 97.2218 65.567C97.3588 65.011 97.8315 64.6493 98.2772 64.7591C98.7228 64.8689 98.9735 65.4087 98.8365 65.9647ZM106.911 67.9536C106.774 68.5095 106.302 68.8713 105.856 68.7614C105.41 68.6515 105.159 68.1118 105.296 67.5558C105.433 66.9999 105.905 66.6381 106.352 66.748C106.798 66.8579 107.048 67.3976 106.911 67.9536Z" fill="#7C533E"/>
<path d="M103.184 62.2238C100.014 61.4431 98.1997 62.7443 97.8613 64.1181C97.523 65.4915 98.0356 66.0219 98.2274 65.665C98.9179 64.3783 100.078 64.217 100.078 64.217C101.853 66.1113 101.772 64.9256 101.772 64.9256C103.478 67.0942 102.828 65.1859 102.828 65.1859C103.397 65.909 105.51 66.4294 105.51 66.4294C105.51 66.4294 105.758 66.9377 105.975 67.5736C106.192 68.21 106.679 67.7472 107.018 66.3738C107.356 64.9997 106.001 62.9177 103.184 62.2238Z" fill="#0B0200"/>
<path d="M104.979 72.4351L96.8513 70.4331C95.8538 70.1874 94.8899 70.6184 94.6984 71.3957L94.265 73.1552L106.005 76.0469L106.438 74.2875C106.63 73.5102 105.976 72.6808 104.979 72.4351Z" fill="#59AE43"/>
<path d="M104.094 74.084L104.545 74.1952L104.199 75.6028L103.747 75.4915L104.094 74.084ZM96.4177 72.1932L96.8693 72.3045L96.5226 73.712L96.071 73.6008L96.4177 72.1932Z" fill="#366B28"/>
<path d="M99.8203 70.0456L99.4736 71.4531C99.33 72.0362 99.82 72.6582 100.568 72.8425C101.316 73.0268 102.039 72.7035 102.183 72.1205L102.53 70.713L99.8203 70.0456Z" fill="#7C533E"/>
<path d="M99.8203 70.0456L99.4736 71.4531C99.33 72.0362 99.82 72.6582 100.568 72.8425C101.316 73.0268 102.039 72.7035 102.183 72.1205L102.53 70.713L99.8203 70.0456Z" fill="#7C533E"/>
</g>
<path d="M124 76L126 80.5L129.5 76" stroke="#75C771" stroke-linecap="round"/>
<defs>
<linearGradient id="paint0_linear" x1="36.5282" y1="240.605" x2="36.5282" y2="266.641" gradientUnits="userSpaceOnUse">
<stop stop-color="#122B4B"/>
<stop offset="1" stop-color="#242B34"/>
</linearGradient>
<linearGradient id="paint1_linear" x1="20.6258" y1="174.54" x2="47.8563" y2="145.244" gradientUnits="userSpaceOnUse">
<stop stop-color="#5DA5F6"/>
<stop offset="1" stop-color="#93FCD6"/>
</linearGradient>
<linearGradient id="paint2_linear" x1="34.5" y1="150" x2="45.6907" y2="138.012" gradientUnits="userSpaceOnUse">
<stop stop-color="#93FCD6"/>
<stop offset="1" stop-color="#36DDF3"/>
</linearGradient>
<linearGradient id="paint3_linear" x1="20.706" y1="174.605" x2="47.549" y2="145.638" gradientUnits="userSpaceOnUse">
<stop stop-color="#448AFF"/>
<stop offset="1" stop-color="#2A1383"/>
</linearGradient>
<linearGradient id="paint4_linear" x1="252.855" y1="230.667" x2="277.297" y2="252.046" gradientUnits="userSpaceOnUse">
<stop stop-color="#44E9FF"/>
<stop offset="1" stop-color="#ACFEE0"/>
</linearGradient>
<linearGradient id="paint5_linear" x1="138.199" y1="177.705" x2="131.501" y2="245.168" gradientUnits="userSpaceOnUse">
<stop stop-color="#25519A"/>
<stop offset="1" stop-color="#002C73"/>
</linearGradient>
<linearGradient id="paint6_linear" x1="139.813" y1="176.093" x2="138.082" y2="217.83" gradientUnits="userSpaceOnUse">
<stop stop-color="#448AFF"/>
<stop offset="1" stop-color="#002C73"/>
</linearGradient>
<clipPath id="clip0">
<rect width="16" height="16" fill="white" transform="translate(83 129.183) rotate(-15.1544)"/>
</clipPath>
</defs>
</svg>
