<?xml version="1.0" encoding="utf-8"?>
<svg viewBox="14.403 -51.369 498.72 483.928" xmlns="http://www.w3.org/2000/svg" xmlns:xlink="http://www.w3.org/1999/xlink">
  <defs>
    <linearGradient gradientUnits="userSpaceOnUse" x1="207.716" y1="343.088" x2="207.716" y2="399.738" id="gradient-1">
      <stop offset="0" style="stop-color: rgba(152, 202, 240, 0.8)"/>
      <stop offset="1" style="stop-color: rgba(63, 156, 227, 0.8)"/>
    </linearGradient>
    <linearGradient id="linear-gradient-2" x1="381.04" x2="152.29" y1="171.77" y2="171.77" gradientUnits="userSpaceOnUse" gradientTransform="matrix(0.969851, 0, 0, 0.97825, 10.872475, 54.37648)">
      <stop offset="0" stop-color="#4594d0"/>
      <stop offset="1" stop-color="#b5cfec"/>
    </linearGradient>
    <linearGradient id="linear-gradient-3" x1="109.9" x2="411.53" y1="86.15" y2="260.3" gradientUnits="userSpaceOnUse" gradientTransform="matrix(0.97608, 0, 0, 0.975111, 8.880122, 54.390915)">
      <stop offset="0.02" stop-color="#73baff"/>
      <stop offset="0.48" stop-color="#4594d0"/>
      <stop offset="1" stop-color="#407dc0"/>
    </linearGradient>
    <linearGradient id="linear-gradient-4" x1="353.47" x2="168.23" y1="173.14" y2="173.14" gradientTransform="matrix(1, 0, 0, 1, 0, 48)" xlink:href="#linear-gradient-3"/>
    <linearGradient id="linear-gradient-5" x1="241.55" x2="268.61" y1="294.2" y2="294.2" gradientUnits="userSpaceOnUse" gradientTransform="matrix(1, 0, 0, 1, 0, 47)">
      <stop offset="0" stop-color="#3b69b2"/>
      <stop offset="1" stop-color="#2e477e"/>
    </linearGradient>
    <linearGradient id="linear-gradient-6" x1="183.02" x2="210.25" y1="101" y2="101" gradientTransform="matrix(1, 0, 0, 1, 0, 48)" xlink:href="#linear-gradient-2"/>
    <linearGradient id="linear-gradient-7" x1="183.02" x2="210.25" y1="136.58" y2="136.58" gradientTransform="matrix(1, 0, 0, 1, 0, 48)" xlink:href="#linear-gradient-2"/>
    <linearGradient id="linear-gradient-8" x1="220.42" x2="337.62" y1="195.52" y2="195.52" gradientUnits="userSpaceOnUse" gradientTransform="matrix(1, 0, 0, 1, 0, 47)">
      <stop offset="0" stop-color="#4594d0"/>
      <stop offset="1" stop-color="#3b69b2"/>
    </linearGradient>
    <linearGradient id="linear-gradient-9" x1="183.02" x2="210.25" y1="172.17" y2="172.17" gradientTransform="matrix(1, 0, 0, 1, 0, 48)" xlink:href="#linear-gradient-8"/>
    <linearGradient id="linear-gradient-10" x1="183.02" x2="210.25" y1="207.75" y2="207.75" gradientTransform="matrix(1, 0, 0, 1, 0, 48)" xlink:href="#linear-gradient-8"/>
    <linearGradient id="linear-gradient-11" x1="183.02" x2="210.25" y1="243.34" y2="243.34" gradientTransform="matrix(1, 0, 0, 1, 0, 48)" xlink:href="#linear-gradient-8"/>
    <linearGradient id="linear-gradient-12" x1="280.67" x2="337.62" y1="111.31" y2="111.31" gradientTransform="matrix(1, 0, 0, 1, 0, 48)" xlink:href="#linear-gradient-8"/>
    <linearGradient id="linear-gradient-13" x1="183.02" x2="210.08" y1="72.91" y2="72.91" gradientTransform="matrix(1, 0, 0, 1, 0, 48)" xlink:href="#linear-gradient-8"/>
    <linearGradient id="linear-gradient-14" x1="233.41" x2="253" y1="130.93" y2="164.86" gradientTransform="matrix(0.999912, 0.013264, -0.013264, 0.999912, 1.89, 43.34)" xlink:href="#linear-gradient-8"/>
    <linearGradient id="linear-gradient-15" x1="240.01" x2="247.83" y1="146.27" y2="146.27" gradientUnits="userSpaceOnUse">
      <stop offset="0" stop-color="#f1f2f9"/>
      <stop offset="0" stop-color="#f0f1f9"/>
      <stop offset="0.07" stop-color="#dae4f4"/>
      <stop offset="0.14" stop-color="#c9daf0"/>
      <stop offset="0.23" stop-color="#bed3ed"/>
      <stop offset="0.36" stop-color="#b7cfeb"/>
      <stop offset="0.72" stop-color="#b5ceeb"/>
      <stop offset="0.74" stop-color="#bad1ec"/>
      <stop offset="0.85" stop-color="#d8e3f3"/>
      <stop offset="0.94" stop-color="#eaeef7"/>
      <stop offset="1" stop-color="#f1f2f9"/>
    </linearGradient>
    <linearGradient id="linear-gradient-16" x1="236.33" x2="251.39" y1="141.91" y2="150.61" gradientUnits="userSpaceOnUse">
      <stop offset="0" stop-color="#b5ceeb"/>
      <stop offset="0" stop-color="#b6cfeb"/>
      <stop offset="0.04" stop-color="#ccdcf0"/>
      <stop offset="0.1" stop-color="#dde6f4"/>
      <stop offset="0.16" stop-color="#e8edf7"/>
      <stop offset="0.25" stop-color="#eff1f9"/>
      <stop offset="0.49" stop-color="#f1f2f9"/>
      <stop offset="1" stop-color="#b5ceeb"/>
    </linearGradient>
    <linearGradient id="linear-gradient-17" x1="179.34" x2="342.35" y1="31.97" y2="314.31" gradientUnits="userSpaceOnUse">
      <stop offset="0" stop-color="#f1f2f9"/>
      <stop offset="0.06" stop-color="#f1f2f9"/>
      <stop offset="0.42" stop-color="#f1f2f9"/>
      <stop offset="0.96" stop-color="#b5ceeb"/>
    </linearGradient>
    <linearGradient id="linear-gradient-18" x1="109.27" x2="410.9" y1="87.24" y2="261.39" gradientTransform="matrix(0.97608, 0, 0, 0.975111, 9.880122, 54.390915)" xlink:href="#linear-gradient-3"/>
    <linearGradient id="linear-gradient-33" x1="86.61" x2="121.82" y1="56.96" y2="56.96" gradientTransform="matrix(1, 0, 0, 1, -0.199134, 84.926842)" xlink:href="#linear-gradient-32"/>
    <linearGradient id="linear-gradient-32" x1="81.48" x2="116.7" y1="66.99" y2="66.99" gradientUnits="userSpaceOnUse" gradientTransform="matrix(1, 0, 0, 1, -7.559741, 214.566238)">
      <stop offset="0" stop-color="#4594d0" stop-opacity=".5"/>
      <stop offset="1" stop-color="#b5cfec"/>
    </linearGradient>
    <linearGradient id="linear-gradient-19" x1="108.4" x2="170.42" y1="82.21" y2="118.01" gradientUnits="userSpaceOnUse" gradientTransform="matrix(1, 0, 0, 1, 0, 47)">
      <stop offset="0.02" stop-color="#73baff"/>
      <stop offset="0.48" stop-color="#4594d0"/>
      <stop offset="1" stop-color="#3b69b2"/>
    </linearGradient>
    <linearGradient id="linear-gradient-20" x1="98.28" x2="160.3" y1="99.73" y2="135.54" gradientTransform="matrix(1, 0, 0, 0.311191, 0, 132.784225)" xlink:href="#linear-gradient-19"/>
    <linearGradient id="linear-gradient-21" x1="88.9" x2="150.92" y1="115.97" y2="151.78" gradientTransform="matrix(1, 0, 0, 1, 0, 48)" xlink:href="#linear-gradient-19"/>
    <linearGradient id="linear-gradient-22" x1="105.41" x2="167.43" y1="87.38" y2="123.18" gradientTransform="matrix(1, 0, 0, 1, 0, 48)" xlink:href="#linear-gradient-19"/>
    <linearGradient id="linear-gradient-23" x1="121.02" x2="183.04" y1="60.34" y2="96.14" gradientTransform="matrix(1, 0, 0, 1, 0, 48)" xlink:href="#linear-gradient-19"/>
    <linearGradient id="linear-gradient-24" x1="128.34" x2="183.52" y1="141.18" y2="141.18" gradientTransform="matrix(1, 0, 0, 1, 0, 48)" xlink:href="#linear-gradient-19"/>
    <linearGradient id="gradient-2" x1="81.48" x2="116.7" y1="66.99" y2="66.99" gradientUnits="userSpaceOnUse" gradientTransform="matrix(1, 0, 0, 1, 6.953308, 145.202347)">
      <stop offset="0" stop-color="#4594d0" stop-opacity=".5"/>
      <stop offset="1" stop-color="#b5cfec"/>
    </linearGradient>
    <linearGradient id="linear-gradient-25" x1="117.26" x2="107.75" y1="215.67" y2="215.67" gradientTransform="matrix(1, 0, 0, 1, 0, 48)" xlink:href="#linear-gradient-19"/>
    <linearGradient id="linear-gradient-26" x1="116.26" x2="183.52" y1="185.24" y2="185.24" gradientTransform="matrix(1, 0, 0, 1, 0, 48)" xlink:href="#linear-gradient-19"/>
    <linearGradient id="linear-gradient-27" x1="337.66" x2="411.77" y1="292.14" y2="292.14" gradientTransform="matrix(1, 0, 0, 1, 0, 48)" xlink:href="#linear-gradient-19"/>
    <linearGradient id="linear-gradient-28" x1="337.66" x2="411.77" y1="221.14" y2="221.14" gradientTransform="matrix(1, 0, 0, 1, 0, 48)" xlink:href="#linear-gradient-19"/>
    <linearGradient id="linear-gradient-29" x1="337.66" x2="411.77" y1="150.14" y2="150.14" gradientTransform="matrix(1, 0, 0, 1, 0, 48)" xlink:href="#linear-gradient-19"/>
    <linearGradient id="linear-gradient-30" x1="98.6" x2="126.59" y1="175.38" y2="175.38" gradientTransform="matrix(1, 0, 0, 1, 0, 48)" xlink:href="#linear-gradient-8"/>
    <linearGradient id="linear-gradient-31" x1="113.75" x2="126.59" y1="171.9" y2="171.9" gradientTransform="matrix(1, 0, 0, 1, 0, 48)" xlink:href="#linear-gradient-8"/>
    <linearGradient id="linear-gradient-34" x1="73.04" x2="108.25" y1="243.33" y2="243.33" gradientTransform="matrix(1, 0, 0, 1, 8.320779, 145.165802)" xlink:href="#linear-gradient-32"/>
    <linearGradient id="linear-gradient-35" x1="90.75" x2="100.03" y1="228.21" y2="228.21" gradientTransform="matrix(1, 0, 0, 1, 4, 48)" xlink:href="#linear-gradient-8"/>
    <linearGradient id="linear-gradient-36" x1="436.17" x2="400.26" y1="111.06" y2="111.06" gradientTransform="matrix(1, 0, 0, 1, 0, 48)" xlink:href="#linear-gradient-2"/>
    <linearGradient id="linear-gradient-37" x1="436.17" x2="400.26" y1="182.63" y2="182.63" gradientTransform="matrix(1, 0, 0, 1, 0, 48)" xlink:href="#linear-gradient-2"/>
    <linearGradient id="linear-gradient-38" x1="405.55" x2="419.99" y1="167.93" y2="167.93" gradientTransform="matrix(1, 0, 0, 1, 0, 48)" xlink:href="#linear-gradient-8"/>
    <linearGradient id="linear-gradient-39" x1="436.17" x2="400.26" y1="254.2" y2="254.2" gradientTransform="matrix(1, 0, 0, 1, 0, 48)" xlink:href="#linear-gradient-2"/>
    <linearGradient id="linear-gradient-40" x1="396.47" x2="428.43" y1="270.29" y2="270.29" gradientTransform="matrix(1, 0, 0, 1, 0, 48)" xlink:href="#linear-gradient-8"/>
    <style>.cls-1{fill:#e2eef8}.cls-5{fill:#fff}.cls-20{opacity:.5}.cls-10{fill:#c7dcf1}.cls-36{fill:#a0c2ff}.cls-39{fill:#fdbd4e}.cls-41{fill:#38426a}.cls-44{fill:#171b20}.cls-47{fill:#cc2128}.cls-52{fill:#14113d}</style>
  </defs>
  <ellipse style="paint-order: stroke; fill: url(#gradient-1);" cx="207.716" cy="371.413" rx="64.091" ry="28.325"/>
  <g id="Layer_2" data-name="Layer 2" transform="matrix(1, 0, 0, 1, 0, -11)">
    <g id="Ilustracion-1_copy" data-name="Ilustracion-1 copy">
      <path fill="none" d="M 150.55 65.14 L 150.47 317.2 C 150.472 321.183 153.111 324.683 156.94 325.78 L 359.6 383.78 C 359.73 383.78 359.85 383.78 359.98 383.86 C 358.619 383.184 357.398 382.258 356.38 381.13 C 357.398 382.258 358.619 383.184 359.98 383.86 C 365.595 385.293 371.042 381.014 370.98 375.22 L 371.23 123.45 C 371.233 119.474 368.601 115.978 364.78 114.88 L 161.93 56.57 C 161.123 56.342 160.289 56.224 159.45 56.22 C 156.62 56.235 153.964 57.589 152.29 59.87 L 151.58 61 C 150.905 62.276 150.551 63.697 150.55 65.14 Z"/>
      <path fill="url(#linear-gradient-2)" d="M 374.78 129.124 C 374.751 123.501 371.064 118.564 365.711 116.984 L 172.527 61.009 C 172.527 61.009 170.868 60.588 170.326 60.52 C 163.983 59.806 158.62 66.879 158.62 66.879 L 158.571 66.967 C 160.194 64.735 162.77 63.41 165.515 63.395 C 166.329 63.399 167.138 63.515 167.921 63.738 L 364.645 120.731 C 368.351 121.805 370.904 125.226 370.901 129.115 L 370.687 375.408 C 370.748 381.077 365.464 385.263 360.018 383.86 C 360.212 383.958 360.409 384.047 360.61 384.125 C 362.958 384.995 370.987 383.391 374.363 377.482 C 374.481 376.797 374.546 376.104 374.557 375.408 Z" style="" transform="matrix(0.999976, -0.006944, 0.006944, 0.999976, -1.537967, 1.857157)"/>
      <path d="M 154.389 72.612 L 154.311 318.768 C 154.313 322.658 156.906 326.076 160.668 327.147 L 359.803 383.788 C 365.425 385.406 371.032 381.197 371.004 375.38 L 371.25 129.508 C 371.253 125.625 368.667 122.211 364.912 121.138 L 165.571 64.243 C 159.971 62.646 154.392 66.822 154.389 72.612 Z" class="cls-5" style=""/>
      <path fill="url(#linear-gradient-3)" d="M 155.829 72.08 L 155.751 317.866 C 155.753 321.75 158.329 325.163 162.066 326.233 L 359.879 382.789 C 365.464 384.404 371.033 380.201 371.006 374.393 L 371.25 128.889 C 371.253 125.012 368.684 121.604 364.954 120.533 L 166.937 63.723 C 161.374 62.128 155.832 66.298 155.829 72.08 Z" opacity=".5" style=""/>
      <path fill="#ebf2fa" d="M 171.23 90.45 L 171.23 301.1 C 171.23 303.661 172.921 305.914 175.38 306.63 L 343.1 355.37 C 346.784 356.433 350.461 353.674 350.47 349.84 L 350.47 139.19 C 350.465 136.627 348.771 134.375 346.31 133.66 L 178.59 84.92 C 174.906 83.845 171.223 86.613 171.23 90.45 Z"/>
      <path fill="url(#linear-gradient-4)" d="M 177 84.69 C 177.545 84.688 178.087 84.766 178.61 84.92 L 346.31 133.66 C 348.771 134.375 350.465 136.627 350.47 139.19 L 350.47 349.84 C 350.465 353.015 347.895 355.589 344.72 355.6 C 344.172 355.597 343.627 355.519 343.1 355.37 L 175.38 306.63 C 172.921 305.914 171.23 303.661 171.23 301.1 L 171.23 90.45 C 171.236 87.267 173.817 84.69 177 84.69 M 177 81.69 C 172.166 81.696 168.25 85.616 168.25 90.45 L 168.25 301.1 C 168.267 304.989 170.831 308.407 174.56 309.51 L 342.28 358.25 C 343.08 358.48 343.908 358.598 344.74 358.6 C 349.572 358.589 353.485 354.672 353.49 349.84 L 353.49 139.19 C 353.472 135.299 350.903 131.88 347.17 130.78 L 179.43 82 C 178.634 81.77 177.809 81.652 176.98 81.65 Z" opacity=".5"/>
      <path fill="url(#linear-gradient-5)" d="M 241.55 337.17 L 241.55 342.72 C 241.548 343.724 242.214 344.607 243.18 344.88 L 252 347.4 C 253.44 347.82 254.88 346.74 254.88 345.24 L 254.88 339.68 C 254.874 338.676 254.206 337.796 253.24 337.52 L 244.42 335 C 242.979 334.587 241.545 335.671 241.55 337.17 Z"/>
      <path d="M 224.44 141.15 L 335.35 173.38 C 336.686 173.769 337.609 174.988 337.62 176.38 L 337.62 198.51 C 337.607 200.587 335.617 202.079 333.62 201.51 L 222.7 169.88 C 221.36 169.495 220.432 168.274 220.42 166.88 L 220.42 144.17 C 220.425 142.078 222.43 140.572 224.44 141.15 Z" class="cls-10"/>
      <path fill="url(#linear-gradient-6)" d="M 187 130.58 L 208 136.67 C 209.338 137.056 210.262 138.277 210.27 139.67 L 210.27 162.37 C 210.257 164.447 208.267 165.939 206.27 165.37 L 185.27 159.37 C 183.934 158.981 183.011 157.762 183 156.37 L 183 133.6 C 183.009 131.519 184.996 130.019 187 130.58 Z"/>
      <path d="M 224.44 176.74 L 335.35 209 C 336.686 209.389 337.609 210.608 337.62 212 L 337.62 234.12 C 337.598 236.192 335.616 237.679 333.62 237.12 L 222.7 205.46 C 221.358 205.078 220.429 203.856 220.42 202.46 L 220.42 179.76 C 220.416 177.664 222.428 176.153 224.44 176.74 Z" class="cls-10"/>
      <path fill="url(#linear-gradient-7)" d="M 187 166.17 L 208 172.25 C 209.336 172.639 210.259 173.858 210.27 175.25 L 210.27 198 C 210.257 200.077 208.267 201.569 206.27 201 L 185.27 195 C 183.936 194.608 183.014 193.391 183 192 L 183 169.19 C 183 167.105 184.995 165.599 187 166.17 Z"/>
      <path fill="url(#linear-gradient-8)" d="M 224.44 212.32 L 335.35 244.55 C 336.686 244.939 337.609 246.158 337.62 247.55 L 337.62 269.7 C 337.607 271.777 335.617 273.269 333.62 272.7 L 222.7 241.05 C 221.36 240.665 220.432 239.444 220.42 238.05 L 220.42 215.34 C 220.425 213.248 222.43 211.742 224.44 212.32 Z"/>
      <path fill="url(#linear-gradient-9)" d="M 187 201.75 L 208 207.84 C 209.338 208.226 210.262 209.447 210.27 210.84 L 210.27 233.55 C 210.257 235.627 208.267 237.119 206.27 236.55 L 185.27 230.55 C 183.934 230.161 183.011 228.942 183 227.55 L 183 204.77 C 183.009 202.689 184.996 201.189 187 201.75 Z"/>
      <path d="M 224.44 247.91 L 335.35 280.14 C 336.686 280.529 337.609 281.748 337.62 283.14 L 337.62 305.26 C 337.598 307.332 335.616 308.819 333.62 308.26 L 222.7 276.63 C 221.358 276.248 220.429 275.026 220.42 273.63 L 220.42 250.93 C 220.416 248.834 222.428 247.323 224.44 247.91 Z" class="cls-10"/>
      <path fill="url(#linear-gradient-10)" d="M 186.64 237.22 L 208.21 243.49 C 209.404 243.856 210.216 244.961 210.21 246.21 L 210.21 269.56 C 210.209 271.446 208.404 272.808 206.59 272.29 L 185.03 266.09 C 183.836 265.724 183.024 264.619 183.03 263.37 L 183.03 239.94 C 183.039 238.063 184.834 236.711 186.64 237.22 Z"/>
      <path d="M 224.44 283.49 L 335.35 315.72 C 336.686 316.109 337.609 317.328 337.62 318.72 L 337.62 340.85 C 337.607 342.927 335.617 344.419 333.62 343.85 L 222.7 312.22 C 221.36 311.835 220.432 310.614 220.42 309.22 L 220.42 286.51 C 220.425 284.418 222.43 282.912 224.44 283.49 Z" class="cls-10"/>
      <path fill="url(#linear-gradient-11)" d="M 187 272.92 L 208 279 C 209.338 279.386 210.262 280.607 210.27 282 L 210.27 304.71 C 210.257 306.787 208.267 308.279 206.27 307.71 L 185.27 301.71 C 183.934 301.321 183.011 300.102 183 298.71 L 183 275.94 C 183.009 273.859 184.996 272.359 187 272.92 Z"/>
      <path d="M 336 156.81 L 283.58 141.81 C 282.134 141.39 280.69 142.475 280.69 143.98 L 280.69 149.51 C 280.69 150.521 281.359 151.409 282.33 151.69 L 334.75 166.75 C 336.198 167.161 337.638 166.075 337.64 164.57 L 337.64 159 C 337.648 157.984 336.977 157.089 336 156.81 Z" class="cls-10"/>
      <path fill="url(#linear-gradient-12)" d="M 336 156.81 L 312 149.93 C 310.552 149.519 309.112 150.605 309.11 152.11 L 309.11 157.64 C 309.11 158.651 309.779 159.539 310.75 159.82 L 334.75 166.7 C 336.198 167.111 337.638 166.025 337.64 164.52 L 337.64 159 C 337.648 157.984 336.977 157.089 336 156.81 Z"/>
      <path d="M 249.4 131.95 L 220.42 123.62 L 220.42 133.87 L 249.4 142.19 L 249.4 131.95 Z M 183 115.87 L 183 121.43 C 182.998 122.434 183.664 123.317 184.63 123.59 L 207.19 130.07 C 208.627 130.482 210.058 129.404 210.06 127.91 L 210.06 122.35 C 210.062 121.346 209.396 120.463 208.43 120.19 L 185.87 113.71 C 184.433 113.298 183.002 114.376 183 115.87 Z" class="cls-10"/>
      <path fill="url(#linear-gradient-13)" d="M 183 115.87 L 183 121.43 C 182.998 122.434 183.664 123.317 184.63 123.59 L 193.4 126.11 C 194.825 126.542 196.268 125.489 196.29 124 L 196.29 118.39 C 196.289 117.387 195.624 116.506 194.66 116.23 L 185.89 113.71 C 184.447 113.282 182.998 114.364 183 115.87 Z"/>
      <path fill="url(#linear-gradient-14)" d="M 254.76 182.52 L 235.82 177.08 C 233.6 176.38 231.76 178.42 231.71 181.63 L 231.5 197.71 C 231.5 200.93 233.24 204 235.45 204.58 L 237.45 205.09 L 237.26 218.88 L 245.51 207.49 L 254.11 209.99 C 256.11 210.52 258.01 208.36 258.05 205.31 L 258.27 189.03 C 258.28 186 256.8 183.16 254.76 182.52 Z" opacity=".8"/>
      <g class="cls-20" transform="matrix(1, 0, 0, 1, 0, 47)">
        <path fill="url(#linear-gradient-15)" d="M247.58 145.83l-3-5.28-.08-.14c-.32-.44-.77-.57-1.05-.3l-.08.1-3.07 3.59a1.64 1.64 0 0 0 0 1.83c.36.63.93.79 1.26.35l1.53-1.81V151a1.58 1.58 0 0 0 .89 1.52c.48.12.88-.36.88-1.06v-6.83l1.51 2.63c.35.63.91.78 1.22.34a1.37 1.37 0 0 0 .24-.86 1.65 1.65 0 0 0-.25-.91z"/>
        <path fill="url(#linear-gradient-16)" d="M250.87 148.19c0-5.53-3.09-11-6.9-12.14s-7.13 2.57-7.13 8.28 3.24 11.22 7.13 12.19 6.9-2.75 6.9-8.33zM244 154c-2.91-.75-5.32-4.86-5.32-9.12s2.41-7.05 5.32-6.2 5.18 4.92 5.18 9.08-2.35 6.93-5.18 6.24z"/>
      </g>
      <g class="cls-20" transform="matrix(1, 0, 0, 1, 0, 47)">
        <path fill="url(#linear-gradient-17)" d="M350.47 92.19v210.65a5.77 5.77 0 0 1-5.75 5.76 6.09 6.09 0 0 1-1.62-.23l-167.72-48.74M177 34.69a8.76 8.76 0 0 0-8.75 8.76V254.1a8.81 8.81 0 0 0 6.31 8.41l167.72 48.74a9 9 0 0 0 2.46.35 8.77 8.77 0 0 0 8.75-8.76V92.19a8.81 8.81 0 0 0-6.32-8.41L179.43 35a8.9 8.9 0 0 0-2.45-.35z" opacity=".2"/>
        <path fill="url(#linear-gradient-18)" d="M 354.35 90.78 C 354.426 91.246 354.466 91.718 354.47 92.19 L 354.47 302.84 C 354.465 307.672 350.552 311.589 345.72 311.6 C 344.888 311.598 344.06 311.48 343.26 311.25 L 175.54 262.51 C 175.117 262.38 174.703 262.223 174.3 262.04 L 157 278.46 C 157.294 278.583 157.594 278.69 157.9 278.78 L 360.56 336.78 C 366.295 338.469 372.036 334.149 372 328.17 L 372.25 76.4 C 372.249 75.613 372.145 74.83 371.94 74.07 Z" opacity=".8"/>
      </g>
      <path d="M 126.95 120.57 L 91.26 136.15 L 91.26 173.34 L 126.95 157.9 L 126.95 120.57 Z" class="cls-36" style=""/>
      <path fill="url(#linear-gradient-33)" d="M 121.621 115.507 L 86.411 131.087 L 86.411 168.277 L 121.621 152.827 L 121.621 115.507 Z"/>
      <path fill="none" stroke="url(#linear-gradient-19)" stroke-linecap="round" stroke-miterlimit="10" d="M 109.26 128.71 L 109.26 130.71"/>
      <path fill="none" stroke="url(#linear-gradient-20)" stroke-dasharray="3.89 3.89" stroke-linecap="round" stroke-miterlimit="10" d="M 109.26 160.045 L 109.26 171.54" style=""/>
      <path fill="none" stroke="url(#linear-gradient-21)" stroke-linecap="round" stroke-miterlimit="10" d="M 109.26 173.49 L 109.26 175.49 L 111.08 174.66"/>
      <path fill="none" stroke="url(#linear-gradient-22)" stroke-dasharray="4.05 4.05" stroke-linecap="round" stroke-miterlimit="10" d="M 114.77 173 L 179.35 143.85"/>
      <path fill="none" stroke="url(#linear-gradient-23)" stroke-linecap="round" stroke-miterlimit="10" d="M 181.19 143.01 L 183.02 142.19"/>
      <path d="M 128.93 188.37 L 93.72 203.94 L 93.72 241.13 L 128.93 225.69 L 128.93 188.37 Z" class="cls-36"/>
      <path fill="none" stroke="url(#linear-gradient-24)" stroke-dasharray="4" stroke-linecap="round" stroke-miterlimit="10" d="M 128.84 200.88 L 183.02 175.49"/>
      <path fill="url(#gradient-2)" d="M 123.643 185.812 L 88.433 201.392 L 88.433 238.572 L 123.643 223.132 L 123.643 185.812 Z"/>
      <path fill="none" stroke="url(#linear-gradient-25)" stroke-dasharray="4" stroke-linecap="round" stroke-miterlimit="10" d="M 116.76 231.03 L 116.76 290.14 L 108.25 294.31"/>
      <path fill="none" stroke="url(#linear-gradient-26)" stroke-dasharray="4" stroke-linecap="round" stroke-miterlimit="10" d="M 116.76 247.7 L 183.02 216.77"/>
      <path fill="none" stroke="url(#linear-gradient-27)" stroke-dasharray="4" stroke-linecap="round" stroke-miterlimit="10" d="M 338.16 330.82 L 411.27 352.07 L 411.27 326.04"/>
      <path fill="none" stroke="url(#linear-gradient-28)" stroke-dasharray="4" stroke-linecap="round" stroke-miterlimit="10" d="M 338.16 259.82 L 411.27 281.07 L 411.27 255.04"/>
      <path fill="none" stroke="url(#linear-gradient-29)" stroke-dasharray="4" stroke-linecap="round" stroke-miterlimit="10" d="M 338.16 188.82 L 411.27 210.07 L 411.27 184.04"/>
      <path d="M 98.4 216.77 C 98.6 215.05 99.51 213.52 100.1 211.9 C 102.74 204.68 99 196.55 100.52 189.01 C 101.257 184.883 103.864 181.331 107.58 179.39 C 111.32 177.63 116.24 178.31 118.92 181.46 C 119.923 182.731 120.686 184.175 121.17 185.72 C 123.74 192.98 123.72 200.93 122.6 208.55 C 121.228 216.947 114.302 223.324 105.82 224 C 101.86 224.32 97.92 220.84 98.4 216.77" class="cls-5" style="fill: rgb(221, 210, 210);"/>
      <path fill="url(#linear-gradient-30)" d="M 98.89 228.45 C 99.03 224.66 99.36 220.45 102.16 217.89 C 103.302 217.004 104.498 216.189 105.74 215.45 C 106.996 214.698 107.872 213.447 108.15 212.01 C 108.145 211.785 108.193 211.563 108.29 211.36 C 108.541 211.069 108.906 210.902 109.29 210.9 C 111.591 210.576 113.778 209.694 115.66 208.33 C 115.896 208.092 116.227 207.974 116.56 208.01 C 116.737 208.091 116.895 208.211 117.02 208.36 C 118.61 209.89 121.34 209.36 123.17 210.58 C 124.85 211.72 125.27 213.98 125.53 215.99 L 126.44 222.74 C 126.6 223.95 126.72 225.31 125.95 226.26 C 125.202 226.976 124.246 227.438 123.22 227.58 C 118.76 228.73 114.63 230.83 110.49 232.81 C 108.68 233.68 100.25 238.42 99.09 236.16 C 98.15 234.27 98.82 230.5 98.89 228.45 Z"/>
      <path fill="url(#linear-gradient-31)" d="M 126.47 222.74 L 125.56 215.99 C 125.3 213.99 124.88 211.72 123.2 210.58 C 121.37 209.35 118.64 209.89 117.05 208.36 C 116.925 208.211 116.767 208.091 116.59 208.01 C 116.257 207.974 115.926 208.092 115.69 208.33 C 115.074 208.766 114.426 209.154 113.75 209.49 C 113.75 209.68 113.82 209.88 113.85 210.08 C 114.21 213.58 114.09 217.08 114.85 220.55 C 115.35 222.79 116.26 224.94 116.77 227.18 C 116.975 228.041 117.032 228.93 116.94 229.81 C 118.982 228.902 121.091 228.157 123.25 227.58 C 124.276 227.438 125.232 226.976 125.98 226.26 C 126.75 225.31 126.63 224 126.47 222.74 Z"/>
      <path d="M 110 220.84 C 112.71 223.57 115.45 226.35 117.26 229.73 C 118.533 223.45 119.62 217.117 120.52 210.73 C 119.191 210.449 117.944 209.871 116.87 209.04 C 115.32 207.83 114.23 206.99 112.17 207.39 C 110.83 207.65 109.23 208.31 108.67 209.67 C 108.28 210.62 108.55 211.76 108.45 212.75 C 108.194 214.384 107.527 215.926 106.51 217.23 C 107.6 218.502 108.766 219.707 110 220.84 Z" class="cls-39"/>
      <path fill="#2b3356" d="M 108.51 210.94 C 108.524 211.269 108.613 211.59 108.77 211.88 C 109.116 212.313 109.612 212.599 110.16 212.68 C 111.161 212.997 112.211 213.132 113.26 213.08 C 114.316 213.022 115.303 212.534 115.99 211.73 C 116.91 210.54 116.81 208.89 116.67 207.39 C 116.45 205.13 116.52 202.79 116.3 200.52 C 116.3 200.27 115.95 200.07 115.75 199.92 C 115.492 199.806 115.198 199.806 114.94 199.92 C 113.46 200.35 111.94 200.84 110.55 201.38 C 108.82 202.03 108.14 201.61 108.13 203.38 C 108.122 205.905 108.249 208.429 108.51 210.94 Z"/>
      <path d="M 102.82 197.62 C 103.23 198.95 103.76 200.43 105.03 201 C 105.32 201.13 106.03 200.54 106.03 200.54 C 106.292 201.101 106.582 201.649 106.9 202.18 C 107.872 203.697 109.261 204.902 110.9 205.65 C 112.443 206.331 114.247 205.971 115.41 204.75 C 116.054 204.03 116.58 203.214 116.97 202.33 C 117.964 199.847 118.43 197.183 118.34 194.51 C 118.34 193.95 118.42 193.24 117.9 193.03 C 117.635 192.955 117.355 192.955 117.09 193.03 C 115.26 193.35 113.51 192.22 112.09 191.03 C 110.82 189.955 109.636 188.781 108.55 187.52 C 109.33 188.43 106.92 194.2 106.16 194.98 C 105.16 195.98 105.32 195.12 104.16 194.98 C 102.45 194.9 102.45 196.39 102.82 197.62 Z" class="cls-41"/>
      <path fill="url(#linear-gradient-32)" d="M 109.13 255.176 L 73.92 270.756 L 73.92 307.936 L 109.13 292.496 L 109.13 255.176 Z"/>
      <path d="M 102.28 141.54 C 99.392 141.742 96.52 140.963 94.13 139.33 C 96.35 138.05 96.99 135.21 97.58 132.72 C 98.68 128.02 100.51 123.23 104.21 120.15 C 107.91 117.07 113.95 116.36 117.42 119.71 C 120.22 122.4 121 127.16 124.57 128.71 C 125 128.9 121.57 133.71 121.17 134.14 C 119.649 135.815 117.832 137.195 115.81 138.21 C 111.56 140.191 106.964 141.322 102.28 141.54 Z" class="cls-44"/>
      <path d="M 107.05 138.69 C 107.13 139.297 107.13 139.913 107.05 140.52 C 106.724 141.59 106.132 142.56 105.33 143.34 C 104.575 144.337 103.613 145.159 102.51 145.75 C 106.168 146.424 109.94 146.131 113.45 144.9 C 114.97 144.481 116.408 143.804 117.7 142.9 C 119 141.984 119.92 140.626 120.29 139.08 C 120.315 139.016 120.315 138.944 120.29 138.88 C 120.24 138.74 120.04 138.72 119.89 138.73 C 118.701 138.771 117.516 138.58 116.4 138.17 C 115.966 138.047 115.576 137.801 115.28 137.46 C 115.056 137.091 114.928 136.671 114.91 136.24 C 114.688 134.412 114.632 132.568 114.74 130.73 C 114.797 130.433 114.747 130.125 114.6 129.86 C 114.448 129.675 114.235 129.551 114 129.51 C 113.246 129.345 112.464 129.345 111.71 129.51 C 110.845 129.652 109.99 129.849 109.15 130.1 C 108.31 130.257 107.508 130.576 106.79 131.04 C 106.39 131.43 106.54 131.99 106.59 132.49 C 106.67 133.49 106.74 134.42 106.81 135.39 Z" style="fill: rgb(220, 217, 191);"/>
      <path d="M 105.41 128 C 106.972 128.379 108.573 128.57 110.18 128.57 C 111.796 128.556 113.368 128.043 114.68 127.1 C 115.63 126.28 116.443 125.315 117.09 124.24 C 118.45 127.58 118.19 131.33 117.91 134.93 C 117.881 136.066 117.672 137.19 117.29 138.26 C 116.877 139.143 116.316 139.948 115.63 140.64 C 115.053 141.322 114.328 141.862 113.51 142.22 C 111.969 142.65 110.316 142.227 109.17 141.11 C 108.054 140.009 107.146 138.715 106.49 137.29 C 106.128 137.993 105.249 138.245 104.57 137.84 C 103.931 137.422 103.454 136.797 103.22 136.07 C 102.662 135.053 102.603 133.836 103.06 132.77 C 103.239 132.447 103.531 132.201 103.88 132.08 C 104.95 131.77 105.88 133.33 105.88 133.33 C 105.572 131.57 105.415 129.787 105.41 128 Z" class="cls-10" style="fill: rgb(240, 227, 197);"/>
      <path d="M 105.1 146.58 C 110.221 146.04 115.103 144.13 119.23 141.05 C 119.44 140.88 119.75 140.71 119.96 140.88 C 120.067 141.008 120.117 141.174 120.1 141.34 C 120.1 145.26 117.95 148.83 115.71 152.04 C 115.419 152.518 115.043 152.938 114.6 153.28 C 113.46 154.06 111.9 153.7 110.6 153.17 C 108.856 152.454 107.225 151.487 105.76 150.3 C 105.023 149.706 104.331 149.057 103.69 148.36 C 103.25 147.88 102.31 147.06 102.22 146.36 C 102.577 146.363 102.931 146.42 103.27 146.53 C 103.873 146.649 104.491 146.666 105.1 146.58 Z" class="cls-39"/>
      <path d="M 97.47 154.15 C 97.08 156.71 97.34 159.33 97.15 161.91 C 106.52 158.33 115.87 154.68 124.93 150.39 C 125.154 150.298 125.353 150.154 125.51 149.97 C 125.599 149.803 125.654 149.619 125.67 149.43 C 126.053 146.473 125.341 143.479 123.67 141.01 C 123.36 140.55 122.93 140.07 122.37 140.09 C 121.81 140.11 121.37 140.69 121.12 141.2 C 118.89 145.43 117.89 150.41 114.62 153.9 C 112.251 153.318 109.954 152.476 107.77 151.39 C 106.529 150.854 105.321 150.246 104.15 149.57 C 103.45 149.14 101.78 147.34 101.09 147.57 C 100.69 147.73 100.09 148.5 99.81 148.81 C 99.363 149.27 98.979 149.788 98.67 150.35 C 98.034 151.53 97.627 152.819 97.47 154.15 Z" class="cls-47"/>
      <path d="M 118 143.26 C 118.53 141.639 118.866 139.96 119 138.26 C 119 137.87 119.1 136.63 119.1 136.63 C 119.685 136.737 120.251 136.929 120.78 137.2 C 121.232 137.465 121.661 137.77 122.06 138.11 C 122.31 138.306 122.497 138.57 122.6 138.87 C 122.66 139.13 122.66 139.4 122.6 139.66 C 122.328 140.69 121.967 141.693 121.52 142.66 C 120.813 144.22 120.073 145.8 119.3 147.4 C 118.254 149.871 116.689 152.088 114.71 153.9 C 114.463 154.153 114.11 154.272 113.76 154.22 C 113.08 153.98 114.16 152.63 114.33 152.29 C 114.8 151.29 115.25 150.34 115.68 149.36 C 116.55 147.36 117.33 145.32 118 143.26 Z" class="cls-47"/>
      <path fill="#e52836" d="M 102.9 142 C 102.992 141.905 103.111 141.839 103.24 141.81 C 103.441 141.829 103.626 141.93 103.75 142.09 C 106.75 145.18 109.25 148.88 112.75 151.35 C 113.75 152.06 114.87 152.66 115.87 153.41 C 116.06 153.55 116.27 153.75 116.23 153.99 C 116.19 154.23 115.78 154.37 115.47 154.36 C 113.041 154.142 110.67 153.492 108.47 152.44 C 105.47 151.23 102.47 149.95 100.28 147.62 C 99 146.12 101.76 142.94 102.9 142 Z"/>
      <path fill="url(#linear-gradient-34)" d="M 114.65 259.857 L 79.44 275.437 L 79.44 312.627 L 114.65 297.177 L 114.65 259.857 Z"/>
      <path fill="#a3b3c5" d="M 94.8 288.63 C 94.991 289.989 94.797 291.375 94.24 292.63 C 93.659 293.348 93.184 294.146 92.83 295 C 96.5 295.098 100.166 294.701 103.73 293.82 C 104.232 293.733 104.703 293.52 105.1 293.2 C 105.79 292.52 105.68 291.4 105.95 290.47 C 104.697 290.148 103.687 289.221 103.26 288 C 102.843 286.795 102.653 285.524 102.7 284.25 C 102.74 282.977 102.602 281.705 102.29 280.47 C 101.482 281.167 100.584 281.752 99.62 282.21 C 98.641 282.674 97.515 282.721 96.5 282.34 C 96.11 282.18 94.88 281.17 94.44 281.44 C 94 281.71 94.44 282.85 94.44 283.24 C 94.7 285 94.65 286.83 94.8 288.63 Z"/>
      <path d="M 90.37 273.66 C 89.688 273.823 89.142 274.332 88.93 275 C 88.73 275.665 88.689 276.367 88.81 277.05 C 88.896 278.492 89.568 279.836 90.67 280.77 C 91.033 281.095 91.549 281.185 92 281 C 92.362 280.688 92.542 280.214 92.48 279.74 C 92.637 280.786 93.061 281.775 93.71 282.61 C 94.114 283.263 94.613 283.853 95.19 284.36 C 96.597 285.393 98.455 285.581 100.04 284.85 C 101.598 284.102 102.834 282.816 103.52 281.23 C 104.191 279.643 104.577 277.951 104.66 276.23 C 104.82 274.204 104.77 272.166 104.51 270.15 C 104.474 269.144 104.101 268.179 103.45 267.41 C 102.944 266.977 102.34 266.675 101.69 266.53 C 99.443 265.83 97.037 265.83 94.79 266.53 C 93.588 266.83 92.572 267.631 92 268.73 C 91.5 269.95 91.92 271.28 92.07 272.53 C 92.07 272.91 92.35 274.07 91.83 274.19 C 91.31 274.31 91 273.56 90.37 273.66 Z" class="cls-10"/>
      <path d="M 89 264.89 C 88.594 265.107 88.173 265.294 87.74 265.45 C 86.772 265.853 86.103 266.756 86 267.8 C 86 268.86 86.7 269.88 86.48 270.91 C 86.262 271.469 86.015 272.017 85.74 272.55 C 85.507 273.397 85.677 274.304 86.2 275.01 C 86.735 275.71 87.418 276.284 88.2 276.69 C 88.307 276.765 88.43 276.813 88.56 276.83 C 88.91 276.83 89.13 276.46 89.21 276.12 C 89.29 275.78 89.34 275.39 89.63 275.19 C 89.92 274.99 90.49 275.19 90.8 275.5 C 91.11 275.81 91.4 276.2 91.8 276.3 C 92.263 276.368 92.721 276.156 92.97 275.76 C 93.197 275.361 93.315 274.909 93.31 274.45 C 93.37 273.27 93.1 272.1 93.07 270.93 C 93.033 270.697 93.091 270.46 93.23 270.27 C 93.468 270.082 93.787 270.032 94.07 270.14 C 94.64 270.28 95.18 270.54 95.76 270.68 C 96.33 270.859 96.949 270.794 97.47 270.5 C 98.23 270 98.42 268.84 99.26 268.5 C 99.866 268.305 100.53 268.425 101.03 268.82 C 101.54 269.18 101.96 269.66 102.47 270.02 C 103.94 270.985 105.88 270.815 107.16 269.61 C 107.568 269.209 107.906 268.743 108.16 268.23 C 109.411 265.787 109.628 262.944 108.76 260.34 C 108.568 259.566 108.084 258.896 107.41 258.47 C 107.317 258.413 107.209 258.385 107.1 258.39 C 106.78 258.39 106.68 258.82 106.54 259.11 C 106.1 260.05 104.75 260.11 103.81 259.71 C 102.87 259.31 102.13 258.47 101.2 258.01 C 100.547 257.682 99.82 257.527 99.09 257.56 C 98.602 257.555 98.129 257.73 97.76 258.05 C 97.04 258.76 97.28 260.14 96.45 260.72 C 95.968 260.992 95.387 261.022 94.88 260.8 C 94.37 260.62 93.88 260.33 93.38 260.18 C 91.513 259.655 89.646 261.012 89.57 262.95 C 89.47 263.74 89.85 264.34 89 264.89 Z" class="cls-39"/>
      <path d="M 111.21 291.51 C 111.115 291.263 110.96 291.043 110.76 290.87 C 110.512 290.729 110.235 290.647 109.95 290.63 L 106.2 290.16 C 106.005 290.125 105.805 290.125 105.61 290.16 C 105.42 290.235 105.246 290.347 105.1 290.49 C 102.355 292.752 98.743 293.672 95.25 293 C 95.105 292.965 94.955 292.965 94.81 293 C 94.643 293.066 94.5 293.181 94.4 293.33 C 93.027 294.906 91.414 296.256 89.62 297.33 C 88.406 297.874 87.355 298.726 86.57 299.8 C 86.219 300.576 85.993 301.403 85.9 302.25 C 85.26 305.74 83.53 309.01 83.36 312.55 C 83.36 312.92 83.36 313.39 83.75 313.5 C 83.958 313.545 84.174 313.513 84.36 313.41 L 90.79 310.84 C 91.79 310.45 92.73 310.07 93.68 309.64 C 96.3 308.49 108.93 302.88 110.26 302.2 C 110.864 301.931 111.378 301.494 111.74 300.94 C 112.025 300.313 112.159 299.628 112.13 298.94 C 112.2 296.41 112.26 293.79 111.21 291.51 Z" class="cls-52"/>
      <path d="M 104.2 289.46 C 104.297 289.351 104.412 289.26 104.54 289.19 C 104.767 289.109 105.021 289.15 105.21 289.3 C 105.61 289.659 105.717 290.243 105.47 290.72 C 105.241 291.175 104.896 291.561 104.47 291.84 C 102.598 293.186 100.404 294.014 98.11 294.24 C 96.957 294.343 95.797 294.317 94.65 294.16 C 94.108 294.125 93.584 293.949 93.13 293.65 C 92.418 293.338 92.31 292.373 92.936 291.912 C 93.227 291.698 93.61 291.655 93.94 291.8 C 94.38 291.89 94.77 292.23 95.23 292.34 C 95.889 292.464 96.562 292.498 97.23 292.44 C 99.837 292.323 102.314 291.264 104.2 289.46 Z" class="cls-47"/>
      <path fill="url(#linear-gradient-35)" d="M 104 272.79 C 104 272.55 103.64 272.3 103.25 272.3 C 102.67 272.295 102.091 272.342 101.52 272.44 C 101.163 272.458 100.855 272.698 100.75 273.04 C 100.691 273.317 100.691 273.603 100.75 273.88 C 100.047 273.957 99.357 274.129 98.7 274.39 C 98.681 274.068 98.592 273.754 98.44 273.47 C 98.397 273.377 98.323 273.303 98.23 273.26 C 98.126 273.225 98.014 273.225 97.91 273.26 C 96.74 273.64 94.68 273.81 94.75 275.4 C 94.75 276.69 95.96 278.57 97.48 277.99 C 98.014 277.758 98.412 277.293 98.56 276.73 C 98.71 276.18 98.771 275.609 98.74 275.04 L 98.74 274.91 L 99.95 274.48 C 100.247 274.398 100.552 274.347 100.86 274.33 C 101.002 274.891 101.272 275.411 101.65 275.85 C 102.064 276.284 102.72 276.379 103.24 276.08 C 103.536 275.819 103.737 275.468 103.81 275.08 C 103.994 274.331 104.058 273.559 104 272.79 Z"/>
      <path fill="url(#linear-gradient-36)" d="M 436.17 181.17 L 400.26 170.86 L 400.26 134.95 L 436.17 145.1 L 436.17 181.17 Z"/>
      <path d="M 430.4 189.68 L 394.5 179.37 L 394.5 143.47 L 430.4 153.61 L 430.4 189.68 Z" class="cls-36"/>
      <path d="M 414.12 132.13 C 417.07 132.13 419.73 134.13 421.12 136.75 C 422.401 139.413 423.083 142.325 423.12 145.28 C 423.302 147.361 423.268 149.456 423.02 151.53 C 422.88 152.15 422.86 152.792 422.96 153.42 C 423.27 154.67 424.57 155.36 425.43 156.31 C 426.807 157.923 426.992 160.238 425.89 162.05 C 425.28 163.05 424.31 163.78 424.09 164.9 C 423.82 166.28 424.81 167.55 425.55 168.75 C 426.327 169.948 426.784 171.325 426.88 172.75 C 426.973 174.191 426.466 175.606 425.48 176.66 C 424.343 177.694 422.834 178.221 421.3 178.12 C 419.812 178.002 418.356 177.623 417 177 C 411.085 174.461 406.039 170.253 402.48 164.89 C 401.85 164.015 401.376 163.037 401.08 162 C 400.661 160.259 401.1 158.423 402.26 157.06 C 403.14 156.06 404.42 155.28 404.73 153.99 C 405.21 151.99 403.14 150.35 402.62 148.37 C 402.391 146.975 402.547 145.543 403.07 144.23 L 404.96 137.83 C 405.341 136.061 406.133 134.407 407.27 133 C 409.37 130.79 411.61 132.17 414.12 132.13 Z" class="cls-1"/>
      <path fill="#334f8a" d="M 405.43 162.32 C 405.965 162.238 406.474 162.036 406.92 161.73 C 407.78 161.05 407.84 159.73 407.84 158.73 C 407.84 156.73 407.917 154.73 408.07 152.73 C 408.07 152.49 408.14 152.2 408.36 152.09 C 408.465 152.048 408.578 152.031 408.69 152.04 L 415.32 152.2 C 415.69 152.2 416.15 152.28 416.32 152.63 C 416.351 152.772 416.351 152.918 416.32 153.06 C 416.02 155.9 415.85 158.76 415.82 161.62 C 415.674 162.93 416.169 164.23 417.15 165.11 L 419.2 167.5 C 419.379 167.685 419.516 167.907 419.6 168.15 C 419.76 168.85 419.01 169.4 418.33 169.61 C 416.17 170.29 413.82 169.72 411.72 168.89 C 409.665 168.079 407.714 167.025 405.91 165.75 C 405.23 165.27 403.78 164.49 403.42 163.75 C 402.84 162.48 404.62 162.51 405.43 162.32 Z"/>
      <path fill="#4978c4" d="M 404.8 145.81 C 404.586 146.286 404.463 146.798 404.44 147.32 C 404.465 148.018 404.646 148.701 404.97 149.32 C 405.29 149.77 405.97 150.04 406.31 149.52 C 406.39 151.896 407.378 154.15 409.07 155.82 C 410.106 156.977 411.621 157.587 413.17 157.47 C 414.276 157.217 415.268 156.605 415.99 155.73 C 416.894 154.741 417.557 153.557 417.93 152.27 C 417.93 152.83 418.69 153.13 419.21 152.93 C 419.677 152.765 420.045 152.397 420.21 151.93 C 420.563 151.181 420.796 150.381 420.9 149.56 C 421.019 148.767 420.43 148.044 419.63 148 C 419.127 148.023 418.683 148.335 418.49 148.8 C 418.779 147.67 418.91 146.506 418.88 145.34 C 417.006 144.492 415.671 142.775 415.31 140.75 C 414.164 141.914 412.807 142.847 411.31 143.5 C 409.799 144.17 408.055 144.05 406.65 143.18 C 406.65 143.18 406.36 145.88 406.32 146.09 C 406.12 145.32 405.25 145 404.8 145.81 Z"/>
      <path d="M 404.23 163 C 404.085 162.86 403.916 162.748 403.73 162.67 C 403.506 162.62 403.274 162.62 403.05 162.67 C 400.587 162.45 398.62 164.685 399.15 167.1 L 398.76 178.94 C 398.723 179.232 398.775 179.528 398.91 179.79 C 399.13 180.14 406.97 182.66 408.91 183.27 C 417.26 185.93 422.66 186.73 426.23 187.61 C 427.047 184.142 427.383 180.579 427.23 177.02 C 427.237 176.314 427.115 175.612 426.87 174.95 C 426.589 174.392 426.221 173.883 425.78 173.44 C 423.619 171.055 421.307 168.811 418.86 166.72 C 417.66 167.72 415.86 167.5 414.39 167.06 C 412.92 166.62 410.99 166.44 409.39 165.91 C 407.496 165.287 405.743 164.298 404.23 163 Z" class="cls-47"/>
      <path d="M 422.08 169.62 C 421.69 169.24 421.3 168.87 420.9 168.51 C 414.49 169.18 405.65 167.37 401.1 163.1 C 400.727 163.245 400.387 163.462 400.1 163.74 L 400.04 163.82 C 405.14 168.85 415 170.71 422.08 169.62 Z M 427 175.47 C 426.952 175.282 426.888 175.098 426.81 174.92 C 426.701 174.68 426.567 174.452 426.41 174.24 C 416.931 174.514 407.538 172.366 399.12 168 L 399.12 169.38 C 407.745 173.745 417.34 175.841 427 175.47 Z M 398.92 174 L 398.92 175.32 C 408.009 178.753 417.471 181.103 427.11 182.32 C 427.11 181.91 427.16 181.49 427.19 181.08 C 417.519 179.851 408.029 177.474 398.92 174 Z M 398.76 178.5 C 398.76 178.96 398.69 179.41 398.69 179.81 C 407.38 183.36 416.92 185.75 426.15 187.67 C 426.26 187.32 426.33 186.92 426.49 186.47 C 417.17 184.53 407.52 182.11 398.76 178.5 Z" class="cls-52"/>
      <path d="M 417.72 138.21 C 416.256 136.425 414.024 135.451 411.72 135.59 C 410.38 135.656 409.115 136.228 408.18 137.19 C 407.374 138.312 406.878 139.626 406.74 141 C 407.213 139.852 408.013 138.868 409.04 138.17 C 410.253 137.482 411.681 137.275 413.04 137.59 C 414.441 137.907 415.731 138.598 416.77 139.59 C 417.929 140.645 418.712 142.049 419 143.59 C 419.155 141.706 418.706 139.822 417.72 138.21 Z" class="cls-39"/>
      <path fill="url(#linear-gradient-37)" d="M 436.17 252.74 L 400.26 242.43 L 400.26 206.52 L 436.17 216.67 L 436.17 252.74 Z"/>
      <path d="M 430.4 261.25 L 394.5 250.94 L 394.5 215.03 L 430.4 225.19 L 430.4 261.25 Z" class="cls-36"/>
      <path d="M 407.18 234.74 C 407.365 236.377 406.995 238.028 406.13 239.43 C 405.78 239.92 405.3 240.43 405.33 240.99 C 405.36 241.55 405.97 242.08 406.53 242.4 C 408.709 243.6 411.163 244.213 413.65 244.18 C 414.65 244.18 415.84 243.85 416.04 242.89 C 416.082 242.476 416.024 242.057 415.87 241.67 C 414.78 237.99 415.27 234.13 415.27 230.3 C 415.27 229.44 412.05 230.16 411.11 230.22 C 410.17 230.28 409.02 229.89 408.11 229.98 C 407.2 230.07 407.11 230.08 407.04 231.29 C 407.022 232.442 407.069 233.594 407.18 234.74 Z" style="fill: rgb(179, 160, 148);"/>
      <path d="M 405.41 223 C 405.469 222.517 405.097 222.088 404.61 222.08 C 404.135 222.1 403.715 222.392 403.53 222.83 C 403.347 223.262 403.282 223.735 403.34 224.2 C 403.405 225.317 403.716 226.407 404.25 227.39 C 404.406 227.774 404.719 228.072 405.11 228.21 C 405.51 228.29 405.98 227.87 405.79 227.51 C 405.99 229.643 406.87 231.655 408.3 233.25 C 409.3 234.37 410.78 235.3 412.25 234.98 C 413.168 234.703 413.99 234.173 414.62 233.45 C 415.83 232.398 416.691 231.003 417.09 229.45 C 417.22 230.031 417.734 230.446 418.33 230.45 C 418.924 230.43 419.475 230.134 419.82 229.65 C 420.68 228.305 420.826 226.623 420.21 225.15 C 420.084 224.908 419.884 224.712 419.64 224.59 C 419.245 224.455 418.807 224.538 418.49 224.81 C 418.183 225.096 417.929 225.435 417.74 225.81 C 418.015 224.367 418.095 222.894 417.98 221.43 C 417.966 220.908 417.847 220.395 417.63 219.92 C 417.16 219.2 416.484 218.639 415.69 218.31 C 414.096 217.329 412.295 216.734 410.43 216.57 C 408.844 216.507 407.322 217.201 406.33 218.44 C 405.926 218.85 405.658 219.373 405.56 219.94 C 405.44 220.93 405.45 222 405.41 223 Z" style="fill: rgb(201, 184, 173);"/>
      <path fill="url(#linear-gradient-38)" d="M 407.91 210.93 C 408.325 210.539 408.789 210.203 409.29 209.93 C 409.746 209.679 410.234 209.491 410.74 209.37 C 412.887 208.862 415.147 209.437 416.79 210.91 C 417.753 211.869 418.536 212.994 419.1 214.23 C 419.339 214.672 419.539 215.134 419.7 215.61 C 420.208 217.156 420.052 218.843 419.27 220.27 C 419.186 220.444 419.054 220.59 418.89 220.69 C 418.57 220.85 418.2 220.64 417.89 220.44 C 416.815 219.636 415.616 219.015 414.34 218.6 C 413.572 218.426 412.794 218.303 412.01 218.23 C 410.336 218.025 408.683 217.674 407.07 217.18 C 406.733 217.092 406.412 216.95 406.12 216.76 C 405.2 216.08 405.56 214.64 405.91 213.76 C 406.351 212.676 407.036 211.708 407.91 210.93 Z"/>
      <path d="M 404.37 216.58 C 404.352 216.205 404.498 215.84 404.77 215.58 C 404.931 215.48 405.112 215.415 405.3 215.39 C 409.042 214.88 412.853 215.427 416.3 216.97 C 417.531 217.336 418.607 218.099 419.36 219.14 C 419.841 219.979 419.911 220.993 419.55 221.89 C 419.422 222.284 419.136 222.606 418.76 222.78 C 418.12 223.02 417.45 222.57 416.9 222.18 C 415.792 221.439 414.636 220.77 413.44 220.18 C 411.086 218.703 408.252 218.191 405.53 218.75 C 404.12 218.84 404.31 217.7 404.37 216.58 Z" class="cls-39"/>
      <path d="M 411.23 221 C 411.884 220.84 412.575 220.975 413.12 221.37 C 414.927 222.286 416.551 223.527 417.91 225.03 C 417.91 224.57 417.91 224.12 417.98 223.66 C 418.011 223.39 417.98 223.116 417.89 222.86 C 417.788 222.67 417.653 222.501 417.49 222.36 C 416.114 221.084 414.476 220.125 412.69 219.55 C 410.99 219.01 409.15 218.82 407.69 217.86 C 407.34 217.606 406.976 217.372 406.6 217.16 C 406.213 216.987 405.801 216.872 405.38 216.82 C 405.049 216.76 404.711 216.76 404.38 216.82 C 403.85 216.981 403.416 217.364 403.19 217.87 C 402.971 218.38 402.908 218.944 403.01 219.49 C 403.29 221.31 405.69 222.17 407.52 221.93 C 408.791 221.779 410.038 221.466 411.23 221 Z" class="cls-52"/>
      <path fill="#35983d" d="M 398 251.23 C 398.189 251.476 398.471 251.632 398.78 251.66 C 404.25 252.85 409.58 254.56 414.91 256.26 L 425.48 259.64 C 425.99 259.8 426.64 259.91 426.96 259.49 C 427.109 259.215 427.156 258.896 427.09 258.59 C 426.92 255.98 427.52 253.27 426.68 250.8 C 425.791 248.718 424.336 246.927 422.48 245.63 C 420.701 244.367 418.992 243.008 417.36 241.56 C 416.796 240.932 416.169 240.362 415.49 239.86 C 414.81 239.53 414.16 240.02 413.41 240.15 C 411.14 240.55 409.5 239.84 407.35 239 C 407.109 238.894 406.852 238.826 406.59 238.8 C 406.388 238.799 406.186 238.822 405.99 238.87 L 403.3 239.43 C 402.57 239.556 401.858 239.771 401.18 240.07 C 399.656 240.93 398.591 242.42 398.27 244.14 C 397.999 245.455 397.918 246.802 398.03 248.14 C 398.06 248.6 398.06 249.06 398.03 249.52 C 397.93 250 397.71 250.79 398 251.23 Z"/>
      <path fill="#45b549" d="M 426.63 250.8 C 425.741 248.718 424.286 246.927 422.43 245.63 C 420.651 244.367 418.942 243.008 417.31 241.56 C 416.746 240.932 416.119 240.362 415.44 239.86 C 414.76 239.53 414.11 240.02 413.36 240.15 C 411.91 240.381 410.424 240.215 409.06 239.67 L 409.06 254.44 C 411 255.04 412.93 255.64 414.86 256.26 L 425.43 259.64 C 425.94 259.8 426.59 259.91 426.91 259.49 C 427.059 259.215 427.106 258.896 427.04 258.59 C 426.87 256 427.47 253.27 426.63 250.8 Z"/>
      <path d="M 410.78 239.36 C 412.259 239.528 413.756 239.392 415.18 238.96 C 415.251 238.919 415.339 238.919 415.41 238.96 C 415.47 238.96 415.48 239.07 415.5 239.14 L 415.75 240.53 C 415.775 240.611 415.775 240.699 415.75 240.78 C 415.707 240.862 415.636 240.926 415.55 240.96 C 414.55 241.448 413.441 241.672 412.33 241.61 C 411.21 241.654 410.089 241.567 408.99 241.35 C 407.882 241.138 406.848 240.642 405.99 239.91 C 405.78 239.759 405.637 239.534 405.59 239.28 C 405.6 239.067 405.673 238.862 405.8 238.69 C 405.97 238.42 406.34 237.74 406.7 237.69 C 407.06 237.64 407.61 238.27 407.89 238.43 C 408.782 238.928 409.765 239.244 410.78 239.36 Z" class="cls-39"/>
      <path fill="url(#linear-gradient-39)" d="M 436.17 324.31 L 400.26 314 L 400.26 278.09 L 436.17 288.24 L 436.17 324.31 Z"/>
      <path d="M 430.4 332.82 L 394.5 322.51 L 394.5 286.6 L 430.4 296.75 L 430.4 332.82 Z" class="cls-36"/>
      <path d="M 416.52 304.51 C 415.09 302.75 415.16 300.25 415.3 297.99 C 413.13 297.74 411.56 299.45 409.57 298.55 C 409.03 298.31 407.24 297.77 407.24 297.77 C 408.13 299.916 407.133 302.379 405 303.3 C 404.33 303.55 403.51 303.68 403.15 304.3 C 402.954 304.822 402.954 305.398 403.15 305.92 C 404.08 310.23 405.15 314.72 407.95 318.1 C 408.064 318.271 408.234 318.398 408.43 318.46 C 408.617 318.483 408.807 318.444 408.97 318.35 C 411.97 317.05 414.07 314.35 416.49 312.13 C 418.17 310.62 420.16 309.13 420.63 306.93 C 419.07 306.502 417.651 305.667 416.52 304.51 Z" class="cls-47" style="fill: rgb(248, 245, 245);"/>
      <path fill="url(#linear-gradient-40)" d="M 408.61 315.07 C 410.16 313.43 416.34 307.7 418.22 305.79 C 420.639 306.712 422.868 308.067 424.8 309.79 C 427.182 312.387 428.48 315.797 428.43 319.32 C 428.361 323.368 427.973 327.403 427.27 331.39 C 420.76 329.39 404.51 324.8 396.47 322.03 C 396.52 316.927 396.901 311.833 397.61 306.78 C 397.633 306.057 397.877 305.359 398.31 304.78 C 398.752 304.376 399.294 304.096 399.88 303.97 C 401.023 303.64 402.19 303.399 403.37 303.25 C 404.37 303.13 405.18 302.85 405.44 304 C 405.99 306.38 406.58 308.74 407.3 311.08 C 407.71 312.45 408.14 313.77 408.61 315.07 Z"/>
      <path d="M 420.69 288.72 C 419.99 287.93 418.64 288.39 417.92 289.17 C 419.015 286.749 418.756 283.931 417.24 281.75 C 415.637 279.51 412.87 278.418 410.17 278.96 C 407.968 279.515 406.245 281.23 405.68 283.43 L 405.68 286.3 C 405.54 285.71 404.68 285.57 404.2 285.92 C 403.751 286.33 403.472 286.894 403.42 287.5 C 403.285 288.076 403.285 288.674 403.42 289.25 C 403.624 289.796 403.929 290.298 404.32 290.73 C 404.599 291.227 405.311 291.235 405.602 290.744 C 405.604 290.74 405.607 290.735 405.61 290.73 C 405.61 290.73 405.78 296.87 411.76 297.6 C 414.23 297.9 416.76 295.16 417.36 293.66 C 417.587 294.068 418.054 294.279 418.51 294.18 C 418.949 294.068 419.337 293.811 419.61 293.45 C 420.127 292.744 420.507 291.946 420.73 291.1 C 421.137 290.355 421.122 289.451 420.69 288.72 Z" class="cls-10" style="fill: rgb(243, 236, 208);"/>
      <path d="M 417.83 290.06 C 417.83 289.67 416.83 292.47 416.67 292.81 C 416.387 293.206 415.897 293.399 415.42 293.3 C 414.92 293.3 414.42 292.61 413.98 292.3 C 413.263 291.768 412.393 291.484 411.5 291.49 C 410.538 291.408 409.572 291.605 408.72 292.06 C 408.17 292.39 407.44 292.92 406.72 292.67 C 406 292.42 405.89 288.2 405.66 288.83 C 405.227 290.894 405.112 293.012 405.32 295.11 C 405.589 296.856 406.23 298.524 407.2 300 C 408.2 301.47 409.69 302.82 411.44 302.68 C 412.252 302.575 413.02 302.25 413.66 301.74 C 415.262 300.483 416.43 298.755 417 296.8 C 417.702 294.626 417.983 292.339 417.83 290.06 Z M 411.14 295.41 C 410.144 295.281 409.196 294.906 408.38 294.32 C 408.975 294.291 409.56 294.159 410.11 293.93 C 410.63 293.648 411.028 293.186 411.23 292.63 C 411.399 293.104 411.68 293.529 412.05 293.87 C 412.663 294.314 413.403 294.549 414.16 294.54 C 413.284 295.169 412.217 295.477 411.14 295.41 Z M 407.8 284.13 C 407.281 284.558 406.641 284.813 405.97 284.86 C 405.395 284.966 404.8 284.878 404.28 284.61 C 403.77 284.206 403.416 283.637 403.28 283 C 403.169 282.703 403.121 282.386 403.14 282.07 C 403.16 281.751 403.331 281.462 403.6 281.29 C 403.887 281.13 404.248 281.217 404.43 281.49 C 404.053 281.06 403.857 280.501 403.88 279.93 C 403.877 279.294 404.207 278.702 404.75 278.37 C 405.32 278.063 406.029 278.246 406.38 278.79 C 406.151 278.355 406.19 277.827 406.48 277.43 C 406.782 277.049 407.194 276.77 407.66 276.63 C 408.404 276.308 409.267 276.431 409.89 276.95 C 409.82 276.29 410.5 275.8 411.13 275.59 C 412.305 275.237 413.564 275.283 414.71 275.72 C 415.306 275.893 415.812 276.291 416.12 276.83 C 416.418 277.394 416.174 278.093 415.59 278.35 C 416.432 278.031 417.38 278.183 418.08 278.75 C 418.771 279.309 419.267 280.072 419.5 280.93 C 419.718 281.788 419.852 282.666 419.9 283.55 C 419.9 284.08 418.99 287.61 418.47 287.55 C 417.95 287.49 417.91 287.15 417.73 286.7 C 417.581 286.235 417.527 285.746 417.57 285.26 C 417.623 284.775 417.589 284.284 417.47 283.81 C 416.456 284.33 415.246 284.288 414.27 283.7 C 413.311 283.103 412.628 282.15 412.37 281.05 C 412.195 281.633 411.775 282.111 411.22 282.36 C 410.671 282.601 410.08 282.733 409.48 282.75 C 409.082 282.825 408.671 282.727 408.35 282.48 C 408.495 283.09 408.282 283.729 407.8 284.13 Z" class="cls-52"/>
      <path d="M 230.43 233.3 C 230.59 232.151 230.661 230.99 230.64 229.83 C 230.98 226.24 233.88 223.5 236.58 221.12 C 237.11 222.59 235.72 224.05 235.58 225.6 C 235.39 227.83 237.77 229.74 237.4 231.95 C 237.17 233.29 236.01 234.22 235.14 235.26 C 233.46 237.26 232.78 239.89 231.76 242.31 C 230.422 245.485 228.464 248.361 226 250.77 C 225.64 247.87 224 243.14 225 240.31 C 226 237.48 229.65 236.39 230.43 233.3 Z" class="cls-41" style="fill: rgb(226, 209, 183);"/>
      <path d="M 179.57 384.49 C 179.452 385.004 179.368 385.525 179.32 386.05 C 179.29 386.178 179.29 386.312 179.32 386.44 C 179.412 386.604 179.562 386.729 179.74 386.79 C 180.49 387.003 181.287 386.975 182.02 386.71 C 184.455 386.132 186.839 385.36 189.15 384.4 C 191.377 383.562 193.548 382.584 195.65 381.47 C 196.301 381.06 196.922 380.606 197.51 380.11 C 197.777 379.851 197.863 379.457 197.73 379.11 C 197.568 378.928 197.333 378.829 197.09 378.84 C 194.328 378.582 191.543 378.768 188.84 379.39 C 188.358 379.577 187.819 379.548 187.36 379.31 C 186.999 378.956 186.828 378.451 186.9 377.95 C 186.969 377.457 186.896 376.954 186.69 376.5 C 186.333 376.052 185.793 375.787 185.22 375.78 C 184.13 375.65 181.91 375.62 181.61 376.98 C 181.26 378.56 180.61 380.09 180.21 381.66 C 180 382.61 179.77 383.55 179.57 384.49 Z M 200.57 391.6 C 200.451 392.114 200.368 392.635 200.32 393.16 C 200.29 393.288 200.29 393.422 200.32 393.55 C 200.413 393.712 200.563 393.833 200.74 393.89 C 201.489 394.101 202.285 394.077 203.02 393.82 C 205.455 393.242 207.839 392.47 210.15 391.51 C 212.377 390.672 214.548 389.694 216.65 388.58 C 217.301 388.17 217.922 387.716 218.51 387.22 C 218.777 386.961 218.863 386.567 218.73 386.22 C 218.568 386.038 218.333 385.939 218.09 385.95 C 215.329 385.689 212.544 385.871 209.84 386.49 C 209.359 386.68 208.82 386.655 208.36 386.42 C 207.999 386.066 207.828 385.561 207.9 385.06 C 207.97 384.563 207.897 384.057 207.69 383.6 C 207.332 383.154 206.792 382.893 206.22 382.89 C 205.13 382.76 202.91 382.73 202.61 384.09 C 202.26 385.67 201.61 387.2 201.21 388.77 C 201 389.72 200.77 390.66 200.57 391.6 Z" class="cls-39" style="fill: rgb(84, 75, 61);"/>
      <path fill="#020029" d="M 183.57 266.51 C 182.272 270.079 180.793 273.581 179.14 277 C 177.66 279.56 174.35 283.21 177.96 296.53 C 181.57 309.85 185.31 326.02 185.14 328.75 C 184.97 331.48 184.97 335.9 184.14 337.75 C 183.31 339.6 179.8 351.32 180.76 364.98 C 181.08 369.59 181.07 372.42 181.07 374.41 C 181.07 378.41 180.71 378.58 180.49 379.55 C 180.12 381.26 187.32 380.94 187.66 377.87 C 188 374.8 192.14 354.26 193.51 349.66 C 194.88 345.06 199.46 332.3 199.29 328.9 C 199.12 325.5 199.29 266.49 199.29 266.49 Z"/>
      <path d="M 188.75 266.1 C 188.75 266.1 187.87 271.73 186.51 274.62 C 185.15 277.51 179.51 286.88 186.51 296.41 C 191.1 306.96 196.9 322.76 197.91 327.22 C 198.92 331.68 199.1 336.75 198.59 339.13 C 198.08 341.51 196.89 355.81 200.12 367.39 C 203.35 378.97 200.97 384.92 201.83 385.6 C 202.69 386.28 206.42 387.13 208.46 385.6 C 210.5 384.07 209.83 360.75 210.85 352.07 C 211.87 343.39 213.48 333 213.7 327.39 C 213.92 321.78 214.7 287.73 213.7 281.77 C 212.7 275.81 210.29 266.51 210.29 266.51 Z" class="cls-52"/>
      <path d="M 173.82 243.24 C 173.448 244.703 173.293 246.212 173.36 247.72 C 173.534 249.075 173.912 250.397 174.48 251.64 C 176.262 255.491 178.447 259.141 181 262.53 C 182.32 264.38 183.88 266.37 186.13 266.75 C 187.057 266.95 188.024 266.71 188.75 266.1 C 189.44 265.257 189.796 264.189 189.75 263.1 C 190.22 255.82 188.62 248.55 188.64 241.25 C 188.64 237.54 189.08 233.83 188.75 230.13 C 188.584 227.253 187.689 224.466 186.15 222.03 C 183.73 218.5 181.92 221.72 180.57 224.34 C 177.513 230.322 175.244 236.675 173.82 243.24 Z" style="fill: rgb(172, 199, 224);"/>
      <path d="M 180.29 227.82 C 179.611 229.721 179.223 231.713 179.14 233.73 C 179.212 235.525 179.47 237.308 179.91 239.05 C 181.75 248.11 181.91 257.43 183.57 266.51 C 183.616 266.969 183.77 267.411 184.02 267.8 C 184.309 268.13 184.672 268.388 185.08 268.55 C 190.37 271.08 196.58 270.28 202.39 269.42 L 207.31 268.7 C 207.918 268.655 208.51 268.484 209.05 268.2 C 209.914 267.506 210.48 266.508 210.63 265.41 C 212.29 258.91 212.57 252.15 212.84 245.41 C 213.12 238.54 215.33 231.78 215.61 224.91 C 215.61 224.37 212.2 220.79 211.06 219.96 C 205.522 216.073 198.636 214.621 192 215.94 C 189.54 216.42 186.06 217.22 184.11 218.94 C 181.87 220.89 181.13 225.13 180.29 227.82 Z" class="cls-5" style="fill: rgb(236, 240, 246);"/>
      <path d="M 218.18 230.2 C 217.748 228.128 216.783 226.205 215.38 224.62 C 214.835 224.056 214.142 223.658 213.38 223.47 C 211.03 222.95 209.01 225.31 208.27 227.6 C 207.07 231.27 207.56 235.26 208.27 239.05 C 209.581 246.063 211.629 252.917 214.38 259.5 C 214.763 260.613 215.373 261.634 216.17 262.5 C 217.005 263.364 218.263 263.668 219.4 263.28 C 220.126 262.872 220.728 262.274 221.14 261.55 L 227.21 252.8 C 227.754 252.104 228.174 251.319 228.45 250.48 C 228.645 249.506 228.645 248.504 228.45 247.53 C 228.07 244.86 227.61 242.2 227.09 239.53 C 226.32 235.64 220.36 245.53 220.36 245.53 C 220.36 245.53 219.89 237.76 219.58 236.17 C 219.22 234.15 218.74 232.17 218.18 230.2 Z" class="cls-39" style="fill: rgb(172, 199, 224);"/>
      <path d="M 210 211.81 C 211.22 210.92 211.53 209.27 211.7 207.81 C 212.215 203.241 212.215 198.629 211.7 194.06 C 211.53 192.61 211.22 191.01 210.05 190.13 C 204.64 186.04 200.52 197.23 200.59 200.89 C 200.66 204.55 205 215.5 210 211.81 Z" class="cls-41" style="fill: rgba(226, 209, 183, 0.98);"/>
      <path d="M 210.32 187.47 C 211.182 188.345 211.579 189.576 211.39 190.79 C 211.09 192.21 209.8 193.17 208.75 194.17 C 205.356 197.4 203.929 202.188 205 206.75 C 206.206 211.312 210.067 214.681 214.75 215.26 C 214.482 219.224 211.86 222.638 208.1 223.92 C 204.355 225.101 200.284 224.628 196.91 222.62 C 195.658 221.798 194.352 221.063 193 220.42 C 191.339 219.761 189.514 219.639 187.78 220.07 C 186.35 220.43 185.04 221.15 183.64 221.61 C 180.19 222.74 175.64 221.61 174.37 218.27 C 173.675 216.014 174.188 213.558 175.73 211.77 C 177.272 210.027 179.163 208.627 181.28 207.66 C 182.68 206.94 184.19 206.19 184.92 204.8 C 185.348 203.86 185.543 202.831 185.49 201.8 C 185.55 198.5 185.18 195.18 185.57 191.89 C 185.96 188.6 187.26 185.24 189.95 183.31 C 191.78 182.089 193.93 181.436 196.13 181.43 C 201.492 181.392 206.63 183.579 210.32 187.47 Z" class="cls-44" style="fill: rgb(72, 48, 49);"/>
      <path d="M 246.318 238.202 C 245.673 238.202 245.039 238.076 244.51 237.856 C 243.978 237.619 243.498 237.228 243.181 236.774 C 242.879 236.299 242.71 235.659 242.717 235.001 L 242.718 234.956 L 242.826 234.469 L 245.05 234.469 L 245.03 234.969 C 245.012 235.411 245.094 235.639 245.359 235.842 C 245.61 236.089 245.872 236.159 246.318 236.159 C 246.831 236.159 247.111 236.069 247.352 235.743 C 247.638 235.436 247.735 235.054 247.735 234.436 C 247.735 233.881 247.635 233.523 247.345 233.2 C 247.1 232.867 246.823 232.776 246.324 232.776 C 245.805 232.776 245.526 232.813 245.36 232.938 C 245.169 233.038 245.085 233.151 245.005 233.407 L 244.89 233.771 L 242.786 233.57 L 243.507 227.22 L 250.064 227.22 L 250.064 230.167 L 248.069 230.167 L 247.93 229.406 L 245.613 229.406 L 245.465 230.603 L 244.537 231.262 C 244.703 231.144 244.905 231.027 245.097 230.937 C 245.286 230.852 245.52 230.772 245.742 230.713 C 245.973 230.659 246.252 230.625 246.518 230.62 C 247.228 230.623 247.915 230.788 248.455 231.08 C 248.983 231.393 249.443 231.879 249.737 232.435 C 250.015 232.996 250.176 233.697 250.176 234.426 C 250.176 235.136 250.013 235.826 249.735 236.377 C 249.435 236.927 248.961 237.423 248.4 237.73 C 247.841 238.037 247.102 238.202 246.318 238.202 Z M 247.92 236.854 C 248.355 236.615 248.635 236.345 248.849 235.913 C 249.083 235.484 249.176 235.028 249.176 234.426 C 249.176 233.803 249.081 233.329 248.847 232.89 C 248.635 232.45 248.374 232.171 247.962 231.95 C 247.554 231.709 247.117 231.609 246.525 231.62 C 246.314 231.621 246.155 231.641 245.983 231.683 C 245.8 231.731 245.658 231.779 245.512 231.847 C 245.504 231.85 245.496 231.854 245.488 231.858 C 245.739 231.805 246.023 231.776 246.324 231.776 C 247.019 231.776 247.68 232.086 248.111 232.557 C 248.493 233.044 248.735 233.725 248.735 234.436 C 248.735 235.2 248.498 235.906 248.115 236.389 C 247.685 236.854 247.023 237.159 246.318 237.159 C 245.71 237.159 245.114 236.935 244.695 236.59 C 244.299 236.199 244.193 235.906 244.093 235.469 L 243.727 235.469 C 243.759 235.759 243.846 235.99 244.011 236.217 C 244.228 236.561 244.488 236.771 244.902 236.936 C 245.327 237.124 245.767 237.202 246.318 237.202 C 246.994 237.202 247.483 237.093 247.92 236.854 Z M 244.197 232.701 L 244.729 228.406 L 248.764 228.406 L 248.903 229.167 L 249.064 229.167 L 249.064 228.22 L 244.399 228.22 L 243.894 232.672 Z M 254.665 238.202 C 253.528 238.202 252.517 237.765 251.817 237.03 C 251.155 236.265 250.787 235.135 250.775 233.808 L 250.775 231.481 C 250.786 230.15 251.152 229.02 251.81 228.256 C 252.504 227.52 253.511 227.082 254.648 227.082 C 255.789 227.082 256.802 227.519 257.502 228.255 C 258.163 229.019 258.532 230.15 258.544 231.481 L 258.544 233.808 C 258.532 235.142 258.165 236.272 257.507 237.034 C 256.815 237.766 255.805 238.202 254.665 238.202 Z M 256.764 236.365 C 257.316 235.788 257.556 234.992 257.544 233.808 L 257.544 231.481 C 257.556 230.3 257.315 229.505 256.76 228.925 C 256.242 228.317 255.601 228.082 254.648 228.082 C 253.701 228.082 253.065 228.316 252.554 228.924 C 252.002 229.503 251.764 230.3 251.775 231.481 L 251.775 233.808 C 251.763 234.985 252.003 235.779 252.558 236.358 C 253.075 236.966 253.716 237.202 254.665 237.202 C 255.617 237.202 256.255 236.968 256.764 236.365 Z M 252.821 236.312 C 252.444 235.788 252.224 234.993 252.216 234.08 L 252.216 231.194 C 252.224 230.281 252.442 229.488 252.817 228.967 C 253.243 228.462 253.92 228.129 254.648 228.129 C 255.387 228.129 256.072 228.463 256.503 228.967 C 256.877 229.488 257.094 230.282 257.102 231.194 L 257.102 234.08 C 257.094 234.997 256.88 235.793 256.509 236.314 C 256.085 236.822 255.404 237.159 254.665 237.159 C 253.932 237.159 253.252 236.822 252.821 236.312 Z M 254.665 236.159 C 255.2 236.159 255.483 236.064 255.713 235.71 C 255.997 235.369 256.11 234.875 256.102 234.08 L 256.102 231.194 C 256.11 230.406 255.998 229.919 255.711 229.578 C 255.473 229.225 255.185 229.129 254.648 229.129 C 254.124 229.129 253.843 229.224 253.609 229.577 C 253.322 229.918 253.208 230.407 253.216 231.194 L 253.216 234.08 C 253.208 234.867 253.324 235.356 253.614 235.702 C 253.854 236.062 254.138 236.159 254.665 236.159 Z M 262.152 237.481 L 260.485 236.53 L 263.557 231.978 C 263.409 232.111 263.247 232.23 263.078 232.325 C 262.687 232.527 262.182 232.653 261.682 232.653 C 261.184 232.653 260.675 232.536 260.286 232.326 C 259.898 232.118 259.551 231.779 259.326 231.423 C 259.114 231.055 258.985 230.582 258.977 230.132 L 258.977 229.613 C 258.985 229.167 259.111 228.696 259.318 228.327 C 259.539 227.967 259.89 227.63 260.274 227.41 C 260.664 227.208 261.168 227.082 261.666 227.082 C 262.17 227.082 262.682 227.199 263.072 227.409 C 263.46 227.618 263.812 227.966 264.037 228.326 C 264.24 228.698 264.362 229.169 264.37 229.613 L 264.37 230.132 C 264.365 230.423 264.31 230.725 264.216 231.001 L 266.235 228.01 L 267.901 228.961 L 265.022 233.228 C 265.147 233.123 265.281 233.028 265.42 232.949 C 265.81 232.747 266.314 232.621 266.812 232.621 C 267.312 232.621 267.823 232.738 268.212 232.948 C 268.6 233.156 268.949 233.499 269.174 233.859 C 269.383 234.23 269.508 234.702 269.516 235.147 L 269.516 235.676 C 269.508 236.121 269.383 236.594 269.179 236.964 C 268.955 237.324 268.602 237.659 268.223 237.875 C 267.83 238.077 267.325 238.202 266.828 238.202 C 266.323 238.202 265.815 238.077 265.422 237.875 C 265.037 237.658 264.686 237.323 264.464 236.962 C 264.257 236.592 264.131 236.122 264.123 235.676 L 264.123 235.147 C 264.128 234.889 264.172 234.623 264.249 234.373 Z M 261.842 236.153 L 261.917 236.196 L 266.545 229.338 L 266.469 229.295 Z M 268.318 236.456 C 268.469 236.213 268.524 235.995 268.516 235.676 L 268.516 235.147 C 268.524 234.828 268.469 234.612 268.314 234.369 C 268.261 234.273 268.205 234.193 268.14 234.122 C 268.325 234.419 268.442 234.794 268.454 235.147 L 268.454 235.676 C 268.442 236.032 268.325 236.411 268.142 236.709 C 268.207 236.636 268.264 236.554 268.318 236.456 Z M 265.327 234.37 C 265.172 234.615 265.115 234.832 265.123 235.147 L 265.123 235.676 C 265.115 235.994 265.171 236.211 265.326 236.455 C 265.38 236.556 265.438 236.64 265.506 236.714 C 265.319 236.415 265.202 236.035 265.191 235.676 L 265.191 235.147 C 265.202 234.796 265.317 234.419 265.497 234.122 C 265.433 234.194 265.379 234.275 265.327 234.37 Z M 266.828 236.377 C 267.091 236.377 267.177 236.369 267.278 236.208 C 267.428 236.054 267.468 235.931 267.454 235.676 L 267.454 235.147 C 267.468 234.898 267.43 234.779 267.277 234.624 C 267.166 234.459 267.074 234.446 266.812 234.446 C 266.55 234.446 266.464 234.453 266.363 234.617 C 266.217 234.771 266.178 234.895 266.191 235.147 L 266.191 235.676 C 266.178 235.931 266.215 236.054 266.366 236.208 C 266.466 236.369 266.556 236.377 266.828 236.377 Z M 263.173 230.909 C 263.324 230.671 263.378 230.454 263.37 230.132 L 263.37 229.613 C 263.378 229.293 263.323 229.074 263.171 228.827 C 263.114 228.723 263.053 228.639 262.982 228.564 C 263.174 228.866 263.296 229.251 263.308 229.613 L 263.308 230.132 C 263.296 230.491 263.178 230.87 262.991 231.166 C 263.059 231.093 263.118 231.009 263.173 230.909 Z M 260.181 228.831 C 260.027 229.074 259.969 229.295 259.977 229.613 L 259.977 230.132 C 259.969 230.452 260.024 230.666 260.181 230.903 C 260.228 230.989 260.279 231.062 260.336 231.127 C 260.164 230.836 260.056 230.475 260.045 230.132 L 260.045 229.613 C 260.057 229.253 260.174 228.871 260.362 228.571 C 260.294 228.645 260.236 228.73 260.181 228.831 Z M 261.682 230.827 C 261.942 230.827 262.029 230.82 262.13 230.66 C 262.282 230.511 262.322 230.388 262.308 230.132 L 262.308 229.613 C 262.322 229.363 262.281 229.239 262.127 229.08 C 262.02 228.912 261.931 228.902 261.666 228.902 C 261.405 228.902 261.323 228.908 261.227 229.073 C 261.075 229.231 261.032 229.361 261.045 229.613 L 261.045 230.132 C 261.031 230.387 261.069 230.507 261.217 230.656 C 261.321 230.817 261.413 230.827 261.682 230.827 Z" style="fill: none;"/>
    </g>
  </g>
</svg>